<svg width="862" height="912" viewBox="0 0 862 912" fill="none" xmlns="http://www.w3.org/2000/svg">
<g clip-path="url(#clip0_1_115)">
<path d="M369.2 910C362 907.4 355.6 902.5 347.4 893.4C343.6 889.2 339.6 884.7 338.5 883.5C337.4 882.4 333.8 878.5 330.5 874.9C327.2 871.4 317.9 861.5 309.9 853C297.2 839.5 287.3 828.9 280.5 821.5C279.4 820.3 274.2 814.9 269 809.4C263.8 803.9 255.7 795.4 251 790.5C246.3 785.5 238.7 777.4 234 772.5C229.3 767.5 217.6 755.2 208 745C191.8 727.9 177.6 713 164 699C161 695.9 156 690.7 153 687.4C150 684.2 139 672.5 128.5 661.5C118.1 650.5 105.9 637.7 101.5 633C97.1 628.4 87.2 618.1 79.6 610.3C71.9 602.5 65.4 595.6 65.1 595.1C64.5 594.2 35.2 563.5 15.5 543.2C2.8 530.1 0 526.1 0 520.6C0 515.2 3.4 512.4 21 503.3C29 499.2 41.1 492.9 48 489.3C54.9 485.6 64.3 480.7 69 478.2C82.6 471.1 88.9 472 101.6 483.2C104.3 485.6 108.6 489.2 111.2 491.3C113.8 493.4 116.5 495.6 117.2 496.3C117.9 497 120.5 499.1 123 501C125.5 502.9 127.7 504.7 128 505C128.3 505.3 132.1 508.4 136.5 512C140.9 515.5 153.7 526.1 165 535.4C176.3 544.8 191.8 557.6 199.5 564C207.2 570.4 225.4 585.5 240 597.5C254.6 609.6 270.8 623 276 627.2C281.2 631.5 287.8 637 290.5 639.5C293.3 642 298.4 645.8 302 647.9C319.1 658 331.2 655.4 350 637.6C359.8 628.3 647.1 343 706.5 283.5C772.9 217 840.2 151.4 843.3 150.3C849.9 147.9 855 149.5 859.4 155.3C861.5 158 862 159.8 862 164.2C862 172.4 861.4 173.6 844.2 200.3C841.8 204.1 836.1 213.2 831.4 220.6C826.8 228 819.1 240.2 814.3 247.8C809.6 255.3 803.6 264.9 801 269C798.4 273.1 790.1 286.4 782.5 298.5C774.9 310.6 764.3 327.4 759.1 335.7C753.8 344.1 741 364.5 730.5 381.1C720.1 397.7 709 415.3 706 420.1C691 444.1 687.3 450 683.5 456C681.1 459.6 675.3 468.9 670.4 476.8C660.4 492.9 659.9 493.6 639.5 526C626.9 546 603 583.8 581 618.5C577.9 623.5 571.6 633.6 567 641C559.2 653.7 542.5 680.4 532 697C529.4 701.1 522.8 711.6 517.4 720.3C511.9 729 505 740 501.9 744.8C498.9 749.6 486.5 769.3 474.5 788.5C450.9 826.2 448.6 829.9 447 831.7C446.5 832.4 446 833.1 446 833.4C446 833.8 442.1 840.2 437 848C433.9 852.8 427.5 862.9 421.5 872.5C401.3 905 401.6 904.6 393.6 908.7C386.8 912.1 376.5 912.7 369.2 910Z" fill="#00041B"/>
<path d="M272.2 552.6C267.2 548.5 260.9 543.5 258.3 541.4C241.2 527.2 234.9 522 230.8 518.7C228.2 516.6 225.5 514.4 224.8 513.7C224.1 513 221.5 510.9 219 509C216.5 507.1 214.3 505.3 214 505C213.7 504.7 211 502.5 208 500C205 497.5 202.3 495.3 202 495C201.7 494.7 199 492.5 196 490C193 487.5 190.3 485.3 190 485C189.4 484.3 174.5 472 162.2 462L153.1 454.5L153 437.6C152.8 297.3 152.9 233.2 153.5 231.9C155 228.2 157.6 228 219.1 228H279.1L281.5 230.6L284 233.3V395.5C284 527.2 283.8 558 282.7 558.8C281.7 559.6 279.2 558.1 272.2 552.6Z" fill="#00041B"/>
<path d="M347.2 558.8C346.3 557.9 346 507.5 346 338.4C346 142.8 346.2 119 347.5 117.6C348.4 116.8 350.5 115.8 352.3 115.5C354.1 115.2 382.4 115 415.3 115.2L475.2 115.5L477.6 118.5L480 121.5L479.9 280.5L479.7 439.5L475.1 444C472.5 446.5 458.5 459.5 444 473C403.1 510.9 391.6 521.6 373.5 539C359.4 552.5 350.9 560 349.6 560C348.9 560 347.9 559.5 347.2 558.8Z" fill="#00041B"/>
<path d="M542 190.3C542 17.4 542.1 6.4 543.8 4.4C544.7 3.2 546.5 1.7 547.7 1.1C549.3 0.3 567.3 0 611.3 0C670.3 0.1 672.7 0.2 675.8 2C677.6 3.1 679.5 5.2 680 6.6C680.6 8.2 681 52.8 681 126.8V244.4L672.2 252.9C667.4 257.6 656.5 268 648 276C639.5 284 630.9 292.1 629 294C627 295.9 621.8 300.9 617.5 305C604.4 317.2 584.7 336.2 564.8 355.7C553.1 367.2 545.3 374 544 374C542 374 542 373.6 542 190.3Z" fill="#00041B"/>
</g>
<defs>
<clipPath id="clip0_1_115">
<rect width="862" height="912" fill="white"/>
</clipPath>
</defs>
</svg>
