<svg width="1521" height="439" viewBox="0 0 1521 439" fill="none" xmlns="http://www.w3.org/2000/svg">
<g clip-path="url(#clip0_1_2)">
<path d="M165.4 436.3C163.7 434.8 149.5 419.8 133.9 403C118.3 386.2 101 367.8 95.4 362C89.9 356.2 73.7 338.9 59.5 323.5C45.2 308.1 26 287.6 16.8 277.8C-2.40002 257.7 -2.90002 256.6 3.69998 251.1C5.79998 249.4 8.39998 248 9.49998 248C13.9 248 19 245.8 28 240C40.3 232.1 41.4 232.2 51.1 240.3C80.2 264.6 136.4 311.3 144.5 317.8C147.6 320.3 149.4 321 153 321H157.5L223.1 255.3C259.1 219.1 313.5 164.3 344 133.5C374.5 102.7 400.8 76.7 402.3 75.6C404.6 74.1 405.6 73.9 407.6 74.9C410 76 412 79.5 412 82.9C412 84.3 391.8 117.1 376.6 140.5C374.8 143.3 369.6 151.4 365 158.5C346.2 188 337.2 201.7 321.6 225.5C312.6 239.3 296.9 263.1 286.8 278.5C276.8 293.9 263.6 314 257.5 323.2C251.5 332.4 242.2 346.6 237 354.6C209.6 397 188.2 429.1 183.7 434.3C180.8 437.7 179.9 438.1 174.5 438.6C169 439 168.3 438.9 165.4 436.3Z" fill="#09273B"/>
<path d="M466.1 377.1C465 376.4 464.9 375.8 465.7 374.8C466.3 374.1 469.6 366.8 473 358.5C476.4 350.3 480.2 341.3 481.5 338.5C482.7 335.8 484.5 331.3 485.5 328.7L487.3 323.9L491.9 324.2L496.4 324.5L500.5 333.6C502.7 338.6 505.3 344.4 506.2 346.6C507.1 348.7 510.4 356.3 513.4 363.5C516.5 370.6 519 376.8 519 377.3C519 377.7 516.9 378 514.3 377.8L509.6 377.5L507 371L504.4 364.5H492C482.1 364.5 479.6 364.8 478.9 366C478.5 366.8 477.3 369.8 476.2 372.5C474.4 377 473.8 377.5 470.8 377.8C469 377.9 466.9 377.6 466.1 377.1ZM500.7 354.8C500.5 354.1 498.9 350.4 497.2 346.5C495.5 342.7 493.9 338.7 493.6 337.8C493.3 336.8 492.6 336 492 336C491.4 336 490.7 336.8 490.4 337.8C490.1 338.7 488.5 342.7 486.8 346.5C485.1 350.4 483.5 354.1 483.3 354.8C482.9 355.7 485 356 492 356C499 356 501.1 355.7 500.7 354.8Z" fill="#09273B"/>
<path d="M544 376.7C542.1 376.1 538.2 373.3 535.3 370.4C531.3 366.4 529.8 364 528.4 359.5C523.4 342.1 533.7 325 550.3 323.3C557.1 322.6 565.3 324.9 570 328.9L573.5 331.8L570.6 334.9C568 337.6 567.4 337.8 566.1 336.6C560.5 331.7 550.8 330.2 545.5 333.4C538.9 337.3 535.1 347.6 537.2 355.7C538.8 361.8 545.3 368.6 550.3 369.5C554.8 370.4 560.4 368.6 565.1 364.9L568.7 362.1L571.6 365.1L574.5 368.2L571 371.2C563.6 377.5 553.3 379.6 544 376.7Z" fill="#09273B"/>
<path d="M599.4 375.6C585.7 369.2 580.3 352.1 587.5 337.4C594.2 323.7 611.2 319 624.8 327.2C627.6 329 630 330.9 630 331.5C630 332.7 625.8 337 624.7 337C624.3 337 622.2 335.8 620 334.4C614.9 331 606.9 330.7 601.9 333.6C597.1 336.4 594 343 594 350.2C594 357.6 595.8 361.8 600.5 365.8C607.1 371.2 614 371 621.9 365.2L625.2 362.7L628.2 365.8L631.3 368.8L626.6 372.2C620.4 376.5 616.7 377.8 610 377.9C606.2 378 602.9 377.2 599.4 375.6Z" fill="#09273B"/>
<path d="M658.5 375.6C648.9 371.2 643.7 362.1 643.6 350C643.6 343.5 644.1 341.7 646.5 337.1C653.8 323.8 669.7 319.3 683.2 326.7C702.1 337 701.1 366.5 681.5 375.6C674.6 378.9 665.4 378.9 658.5 375.6ZM675.7 368.9C682.6 366.3 687.3 359.1 687.4 351C687.4 338.6 677.5 329.5 666.3 331.6C660.8 332.6 654.5 339.4 653.2 345.6C650 360.6 662.8 373.8 675.7 368.9Z" fill="#09273B"/>
<path d="M723.2 376.7C719 375.4 712.2 367.8 711.5 363.6C711.3 361.9 710.9 352.3 710.8 342.2L710.5 324H715.3H720V342.3C720 362.4 720.4 364 725.9 367.7C729.9 370.4 733.5 370.6 738.9 368.4C745.9 365.6 746.3 364.2 746.2 342.9L746.1 324.2H751.1H756V339.3C756 364.2 753.5 371.6 743.6 376.1C739 378.2 728.7 378.5 723.2 376.7Z" fill="#09273B"/>
<path d="M775 350.9V323.9L779.2 324.2C783.4 324.5 783.5 324.6 796.3 341.5C803.4 350.9 809.5 358.6 809.8 358.8C810.2 358.9 810.4 351.1 810.2 341.5L809.9 324H814.9H820V351V378H816.7C813.5 378 812.6 377 802.4 363.8C796.3 355.9 789.9 347.4 788 344.8C786.2 342.1 784.4 340 784.1 340C783.8 340 783.6 348.5 783.8 359L784.1 378H779.6H775V350.9Z" fill="#09273B"/>
<path d="M896.7 377.3C896.3 377 896 364.8 896 350.3V324H900.3H904.5V351V378H900.9C898.9 378 897 377.7 896.7 377.3Z" fill="#09273B"/>
<path d="M924.9 377.8C924.9 377.6 924.8 365.5 924.6 350.8L924.4 324H928.6C932.5 324 933.1 324.4 936.3 328.8C938.2 331.4 944.3 339.5 949.9 346.8L960 360.2V342.1V324H965.1C969.4 324 970.1 324.3 969.6 325.6C969.3 326.5 969 338.6 969 352.6V378H965.8C962.7 378 961.6 376.8 948.6 359.5C941 349.3 934.4 340.8 934.1 340.6C933.8 340.4 933.6 348.7 933.8 359.1L934.1 378H929.6C927.1 378 925 377.9 924.9 377.8Z" fill="#09273B"/>
<path d="M1000.9 375.5C996.5 373.2 991.7 368.3 989.2 363.4C988.6 362.2 987.7 358.6 987.1 355.2C985.2 343.2 991 331.2 1001.4 325.8C1009.8 321.5 1023.5 322.8 1030.6 328.5L1033.5 330.9L1030.2 334.2C1028.1 336.3 1026.7 337.1 1026.2 336.4C1023.9 332.9 1014.7 330.5 1009.1 332C999 334.7 993.6 346.9 997.5 358.1C1001.3 368.7 1011.3 372.8 1021.8 368C1025.8 366.2 1026 365.9 1026 361.5C1026 359 1025.9 356.7 1025.8 356.3C1025.6 356 1022.9 355.8 1019.8 355.9C1014.2 356.1 1014 356 1014 353.7C1014 352.3 1013.7 350.5 1013.4 349.6C1012.9 348.2 1014.2 348 1023.9 348H1035V358.9V369.9L1032.1 371.9C1025.9 376.4 1020.8 378 1013 377.9C1007.1 377.9 1004.5 377.4 1000.9 375.5Z" fill="#09273B"/>
<path d="M1098.1 376.6C1093.4 374.9 1087.5 369.7 1084.6 364.7C1077.1 351.7 1081.3 334.7 1094.1 326.8C1102.8 321.4 1116.3 322.4 1124.2 329L1127.5 331.9L1124.3 335.1L1121.2 338.3L1118 335.7C1116.3 334.2 1113.6 332.7 1112.2 332.4C1110.7 332.1 1108.9 331.6 1108.1 331.4C1105.5 330.6 1099.1 333.1 1096.1 336C1094.5 337.7 1092.4 341.3 1091.5 344.1C1089.1 351.3 1090.7 358.5 1095.8 363.9C1102.5 371 1111.7 371.6 1118.4 365.4C1119.8 364.1 1121.3 363 1121.8 363C1122.8 363 1128.5 368.9 1127.9 369.3C1122.9 372.7 1118.8 375.2 1115.8 376.5C1111.4 378.3 1102.9 378.4 1098.1 376.6Z" fill="#09273B"/>
<path d="M1158.1 376.6C1153.3 374.9 1147.5 369.7 1144.3 364.2C1141.8 360 1141.5 358.6 1141.5 350.5C1141.6 340.9 1142.5 338.2 1147.6 332.1C1151.6 327.3 1157.9 324.1 1164.6 323.4C1175.8 322.2 1185.1 326.9 1191 336.6C1194.1 341.8 1194.4 343 1194.5 349.9C1194.5 355.5 1193.9 358.7 1192.4 362.1C1189.7 367.8 1184 373.6 1178.6 376.1C1173.8 378.3 1163.4 378.5 1158.1 376.6ZM1174.4 368.6C1179.2 366.6 1182.8 362.3 1184.5 356.5C1188.3 344 1179.8 331.6 1167.5 331.6C1160.5 331.6 1155.8 334.7 1152.5 341.7C1149.5 347.9 1149.4 352.3 1151.9 358.2C1156.2 368 1165.5 372.3 1174.4 368.6Z" fill="#09273B"/>
<path d="M1212 351.1V324H1216.8H1221.7L1229.9 336.5C1234.4 343.4 1238.3 349 1238.6 349C1238.8 349 1239.4 348.2 1239.8 347.2C1240.2 346.2 1243.6 340.6 1247.4 334.7L1254.3 324H1259.2H1264V351.1V378.1L1259.8 377.8L1255.5 377.5V358.2C1255.5 339.5 1255 336.8 1252.5 341.6C1249.4 347.5 1238.5 362.7 1237.6 362.3C1237 362.1 1233.1 356.7 1229 350.4L1221.5 338.9L1221 358.2L1220.5 377.5L1216.3 377.8L1212 378.1V351.1Z" fill="#09273B"/>
<path d="M1284 351.1V324H1297.1C1308.2 324 1310.9 324.3 1315.1 326.1C1321.7 329 1324.3 333.3 1324.4 341.5C1324.5 346.8 1324.1 348.2 1321.7 351.3C1317.3 357 1313.9 358.3 1302.2 358.8L1291.8 359.2L1292.1 368.4L1292.4 377.5L1288.2 377.8L1284 378.1V351.1ZM1309.2 349.9C1313 348.9 1316 345.1 1316 341.5C1316 338.9 1313.2 334.2 1311.3 333.6C1308.2 332.7 1296.1 331.8 1294.3 332.4C1292.7 332.9 1292.5 334.2 1292.4 342V351H1298.9C1302.5 351 1307.2 350.5 1309.2 349.9Z" fill="#09273B"/>
<path d="M1332 375.2C1332 373.6 1336.2 362.5 1341.4 350.4C1346.5 338.4 1351 327.5 1351.4 326.3C1352 324.3 1352.8 324 1356.8 324L1361.5 324.1L1372.5 350.1C1378.6 364.5 1383.7 376.6 1383.9 377.2C1384.1 377.7 1382.2 378 1379.4 377.8L1374.5 377.5L1372 370.8L1369.6 364H1357H1344.5L1341.9 370.8C1339.4 377.2 1339.1 377.5 1335.6 377.8C1332.2 378.1 1332 377.9 1332 375.2ZM1366 355.1C1366 354.5 1365.6 353.9 1365.2 353.6C1364.8 353.4 1362.9 349.3 1361 344.6C1359.1 339.8 1357.2 336.1 1356.7 336.3C1356.3 336.4 1354.3 340.3 1352.4 345C1350.4 349.7 1348.6 354.1 1348.3 354.8C1347.9 355.7 1350 356 1356.9 356C1361.9 356 1366 355.6 1366 355.1Z" fill="#09273B"/>
<path d="M1430.9 368.3C1426.9 362.9 1420.4 354.3 1416.5 349.2L1409.5 339.8L1409.2 358.5L1409 377.1L1404.7 376.8L1400.5 376.5L1400.2 350.3L1400 324H1404.4C1408 324 1409.2 324.5 1410 326.1C1410.6 327.2 1416 334.4 1422 342.1C1427.9 349.8 1433.5 357 1434.3 358.3C1435.8 360.3 1435.9 359 1435.9 342.3L1436 324H1440.4H1444.9V351V378H1441.6C1438.7 378 1437.6 377.1 1430.9 368.3Z" fill="#09273B"/>
<path d="M1481 366.7V355.2L1473.2 343.4C1460.9 324.7 1460.6 324 1467.3 324H1471.5L1478 334.6C1484.8 345.7 1485.8 347 1486.9 345.1C1487.2 344.5 1490.2 339.5 1493.5 334L1499.5 324.1L1504.8 324C1507.6 324 1510 324.2 1510 324.4C1510 324.7 1505.5 331.6 1500 339.9L1490.1 354.9L1489.8 366.2L1489.5 377.5L1485.3 377.8L1481 378.1V366.7Z" fill="#09273B"/>
<path d="M854 354.7V332.4L845.3 332.5H836.6L836.4 328.3L836.2 324H858.2H880.1L879.8 328.3L879.5 332.5H871H862.5L862.4 336C862.3 337.9 862.2 347.9 862.1 358.3L862 377H858H854V354.7Z" fill="#09273B"/>
<path d="M119.4 261.8C111.1 255 97.5 243.9 89.2 237.2L74 224.8V167.4V110H105H136V192C136 237.1 135.6 274 135.2 274C134.8 274 127.7 268.5 119.4 261.8Z" fill="#09273B"/>
<path d="M168 162.6V56L198.3 56.2L228.5 56.5L228.7 135.6L228.9 214.7L224.2 219.1C199.4 242 191.1 249.9 182.2 258.5C176.5 264 171 268.6 170 268.8C168 269.1 168 267.7 168 162.6Z" fill="#09273B"/>
<path d="M1264.5 258.5C1241.2 254.2 1228 242 1221.8 219.2C1219.9 212.1 1219.7 207.7 1219.1 164C1218.5 119.8 1218.4 116.3 1216.6 113.7C1215.6 112.2 1213.8 110.8 1212.6 110.5C1211.5 110.3 1208.7 109.7 1206.5 109.3L1202.5 108.4L1202.2 102.7L1201.9 97L1233.7 97.2L1265.5 97.5V103V108.4L1261.5 109.2C1254.1 110.7 1252.1 112 1251 115.9C1250.4 118 1250 135.8 1250 160C1250 215.1 1251.4 224.4 1260.8 233.8C1266.6 239.6 1274.3 242.2 1285.5 242.3C1307.5 242.4 1321.1 232.3 1326.6 211.5C1327.7 207.7 1328 195.8 1328 161.4C1328 117.7 1327.9 116.2 1326 113.7C1324.9 112.3 1322.5 110.9 1320.7 110.5C1319 110.1 1315.8 109.4 1313.7 108.9L1309.9 107.9L1310.2 102.7L1310.5 97.5H1336H1361.5L1361.8 103.1L1362.1 108.7L1355.9 109.4C1351.4 109.9 1349.2 110.7 1347.4 112.5L1345 114.9V151.7C1345 202.8 1343.3 218.6 1336.5 232.5C1331.9 242 1320.4 251.7 1309.5 255.5C1296.7 259.8 1278.5 261.1 1264.5 258.5Z" fill="#09273B"/>
<path d="M1162.3 258.3C1161 258.1 1157.8 254.8 1154.6 250.7C1151.6 246.7 1145.8 239.2 1141.8 234C1090 167.2 1068.8 139.7 1067.6 137.8C1067 136.8 1066.1 136 1065.5 136C1064.1 136 1064.6 231.2 1066 236.2C1067.3 240.9 1070.7 242.8 1079 243.7C1084.7 244.3 1085 244.4 1085 247C1085 248.5 1085.3 251.1 1085.6 252.8L1086.2 255.9L1059.9 255.7L1033.5 255.5L1033.2 249.9L1032.9 244.3L1038.6 243.6C1046.1 242.7 1047.8 241.6 1050.1 236.4C1052 232.2 1052.1 230.1 1051.4 175.3C1050.7 114.3 1050.9 115.9 1045.5 112.4C1044.2 111.5 1041.1 110.6 1038.8 110.3C1032.8 109.5 1032 108.6 1032 102.4V97H1053.5H1075L1080.2 103.7C1083.1 107.4 1088.7 114.5 1092.5 119.5C1096.4 124.6 1106.8 138.1 1115.7 149.6C1124.6 161.1 1137.9 178.2 1145.1 187.5C1152.3 196.9 1158.6 204.7 1159.1 204.8C1160.2 205.3 1160.2 144.2 1159.1 126.5C1158.1 111.2 1158 111.1 1146.1 109.5L1138.5 108.5V103V97.5L1163.3 97.2L1188.1 97L1187.8 102.7L1187.5 108.5L1182.7 109.7C1176.8 111.1 1175.3 112.3 1173.4 116.8C1172.2 119.7 1172 131.4 1172 189V257.8L1169.8 258.4C1167.4 259 1165.9 259 1162.3 258.3Z" fill="#09273B"/>
<path d="M546.9 253.8C545.4 248.9 532.5 216.9 519.6 185.5C511 164.8 502.7 144.2 501.6 140.8C500.6 137.5 499.5 139 499.4 143.8C499.1 157.9 496.9 201.9 496.1 211C495.5 216.8 495.1 225.4 495 230.1C495 238 495.2 238.8 497.5 241C499.4 242.8 501.5 243.5 505.9 243.8L511.8 244.2L512.2 249.7C512.3 252.7 512.2 255.4 511.9 255.6C511.6 255.7 500 255.9 486.2 255.9H461V250V244H465C470 244 475.5 241.8 476.9 239.3C478.1 236.9 479.6 224.8 481 205.5C481.6 197.3 482.9 177.8 484 162.4C485.1 146.9 486 129.5 486 123.6C486 113.5 485.9 113 483.5 111.4C482.2 110.5 478.4 109.6 475.1 109.3C471.8 109 468.9 108.2 468.7 107.6C468.4 106.9 468.4 104.3 468.7 101.7L469.3 97L493.8 97.2L518.4 97.5L520.3 103C524.5 115.2 540.6 157.5 543 162.5C543.5 163.6 545.7 169 547.9 174.5C550.1 180 553.5 188.6 555.5 193.5C557.5 198.5 559.6 204 560.1 205.8C561.2 209.5 562.5 209.3 563.5 205.3C564 202.9 568 192.2 581 158C586.3 144.2 596.3 116.7 600.7 104C601.5 101.5 602.7 98.9 603.3 98.2C604 97.2 610.1 97 629.2 97L654.1 97.1L653.8 102.8L653.5 108.5L647.8 109.2C637.4 110.5 635.5 113.1 636.4 124C636.8 127.6 637.5 139.3 638 150C638.6 160.7 639.2 172.9 639.5 177C639.8 181.1 640.4 191.7 641 200.5C641.6 209.3 642.5 221.6 643.2 227.7C644.6 241.4 645.4 242.6 654 243.6L660.1 244.3L659.8 249.9L659.5 255.5L626.8 255.7L594 255.9V249.9V244H599.4C606 244 609.5 242.8 611 240C612.6 236.9 612.3 221.6 610 190.5C608.9 175.7 607.7 156.5 607.3 147.8C606.8 134.7 606.5 132.2 605.3 133.1C604.6 133.7 604 135 604 135.8C604 136.7 601.3 144.2 598.1 152.5C594.8 160.7 589.9 173.6 587 181C577.5 205.7 569.9 225.5 569 227.5C568.6 228.6 566.3 234.5 564 240.5C557 259.1 557.7 258 552.7 258C548.4 258 548.3 257.9 546.9 253.8Z" fill="#09273B"/>
<path d="M673.6 255.3C673.3 254.9 673 252.3 673 249.3V244H676.6C682 244 687.5 242.1 689.1 239.6C690.3 237.9 690.6 227.9 690.8 181.5C691 150.7 690.8 123.1 690.5 120.3C689.6 112.7 687.7 110.9 679.4 109.5L672.5 108.4L672.2 102.7L671.9 96.9L731.4 97.1C771.4 97.1 791.2 97.5 791.6 98.2C792 98.8 792.5 107.5 792.8 117.7L793.3 136.1L788 135.8L782.7 135.5L781.4 131C780.7 128.5 778.6 124 776.8 121C774.1 116.5 772.5 115 767.7 112.7C762.1 110 761.4 109.9 746 109.9C737.2 109.9 728.2 110.4 726 111L722 112.1V141.5V171L731.3 170.9C744.2 170.8 756 169.6 759.5 167.9C762.8 166.3 764.6 163.2 766.4 156.2C767.4 151.8 767.7 151.5 771.5 150.9C773.7 150.5 775.8 150.5 776.3 150.9C776.7 151.3 776.9 162.9 776.8 176.6L776.5 201.5L773 201.6C767.7 201.6 767.2 201.2 766.1 195.8C763.7 185 762.2 184.2 741.3 183.6C732.6 183.4 724.7 182.8 723.8 182.5C722.1 181.8 722 183.4 722 208C722 224 722.4 234.9 723 236.1C724.7 239.2 729.5 241 739.7 242.6C751.8 244.4 759.7 244.4 768.3 242.6C777.2 240.7 781.9 238.2 785.2 233.4C787.6 229.8 791.1 220.4 792.5 213.8C793 211.2 793.3 211 798.5 211C803.5 211 804 211.2 804 213.3C804 215.4 801.7 233.5 800.6 239.5C800.3 241.2 799.6 245.5 799 249.1L797.8 255.6L736 255.8C702 255.8 673.9 255.6 673.6 255.3Z" fill="#09273B"/>
<path d="M816 249.8V244H820.3C822.6 244 826.1 243.2 828 242.2C834.1 239.2 834.2 237.9 833.7 174.5C833.4 141.1 832.8 117.5 832.2 116C830.6 112 827.9 110.2 821.9 109.5C814.3 108.6 813.8 108.2 814.2 102.4L814.5 97.5H847.5H880.5L880.8 102.5C881.2 108.2 879.6 110 874.4 110C869.4 110 866.2 113.5 865 119.9C863.6 127.4 864.4 228.3 865.8 232.9C868.3 240.5 872.6 242.6 887.7 243.7C904.1 244.8 916.1 240.8 922.4 232.1C925.6 227.7 930 217.1 930 213.7C930 211.5 931.2 210.9 937 210.5C941.4 210.2 942 210.4 942 212.2C942 216.9 937.2 244 935 252L934 255.5L875 255.6H816V249.8Z" fill="#09273B"/>
<path d="M952 249.9V244.2L958.2 243.8C966.5 243.2 968.6 240.8 969.5 230.8C969.8 226.8 970.2 199.9 970.3 171C970.5 116 970.3 113.2 966.2 111.4C965.2 111.1 961.8 110.2 958.5 109.6L952.5 108.5L952.2 102.7L951.9 96.9L984.7 97.2L1017.5 97.5V103V108.4L1011.6 109.6C1002.4 111.4 1002.1 112.2 1002 132C1002 141.1 1001.7 167.6 1001.5 191C1001.2 214.4 1001.3 234.8 1001.8 236.4C1002.9 240.5 1007 243.2 1012.9 243.8L1018 244.3V250.1V255.8L985 255.7L952 255.6V249.9Z" fill="#09273B"/>
<path d="M1364 249.8V244H1367.6C1377.7 244 1384.3 238.9 1397.6 221C1401.5 215.8 1409.9 204.4 1416.3 195.8C1422.7 187.1 1428 179.6 1428 179.1C1428 178.3 1417.8 161 1400.7 132.8C1390.9 116.5 1385.8 111.9 1374.3 109L1370 107.9V102.5V97H1404.9C1424.2 97 1440.1 97.3 1440.3 97.8C1440.5 98.2 1440.4 100.7 1440.1 103.5C1439.5 108.4 1439.5 108.4 1435 109.5C1431.8 110.3 1430.1 111.4 1429 113.3C1427.3 116.5 1426.4 114.6 1440.8 139C1445.8 147.5 1450.3 155.2 1450.8 155.9C1451.4 157 1452.8 155.6 1456.2 150.4C1463.8 138.6 1478 115 1478 114.1C1478 112.4 1474.3 110 1470.4 109.2L1466.5 108.4L1466.2 102.7L1465.9 97L1492.7 97.2L1519.5 97.5V103V108.5L1513.7 109.1C1503.6 110.2 1493.5 119 1480.8 137.9C1477.9 142.1 1471.9 150.7 1467.4 157.1L1459.3 168.7L1474.6 193.6C1494.4 226 1498.7 232.6 1502.4 236.8C1505.8 240.7 1510.4 243 1514.9 243C1520.4 243 1521 243.7 1521 249.9V255.6L1485.5 255.5H1450V249.8V244H1453.3C1456.8 244 1462.7 240.9 1463.6 238.6C1464.3 236.8 1460.8 229.6 1452.7 216.6C1449.2 211.1 1444.2 203 1441.6 198.7C1438.9 194.4 1436.4 191.2 1436 191.7C1433.2 194.6 1407.2 232.2 1406.1 234.8C1404.9 237.5 1405 238.3 1406.3 240.4C1407.6 242.3 1409.2 243 1414.2 243.7L1420.5 244.5L1420.8 250L1421.1 255.6H1392.5L1364 255.7V249.8Z" fill="#09273B"/>
<path d="M261 89.6V0H291.5H322V61.6V123.3L293.9 150.9C275.8 168.6 264.9 178.6 263.4 178.8L261 179.1V89.6Z" fill="#09273B"/>
<path d="M167.2 437.4C164.9 435.8 153.8 424.4 144.4 414C141.7 411 138.8 407.9 137.9 407C131.1 400.5 122.8 390.9 123.4 390.3C124.1 389.6 140 404.8 140 406.2C140 406.6 142 408.8 144.5 411.1C147 413.4 149.3 416.3 149.6 417.6C150 418.9 150.7 420 151.4 420C152 420 156.1 423.6 160.5 428C168.4 435.9 168.5 436 173.6 436C177.7 436 179.1 435.5 181 433.5C182.3 432.1 183 431 182.5 431C182 431 182.5 430.3 183.6 429.5C184.6 428.7 185.1 428 184.6 428C184.1 428 184.9 427.1 186.3 426C188.4 424.3 206 399 206 397.6C206 397.3 208 394.2 210.5 390.5C213 386.9 214.8 383.5 214.5 382.9C214.1 382.4 214.5 382 215.2 382C216.3 382 224.5 370.1 225.9 366.5C226.1 366 226.6 365.3 227 365C228.3 364.1 239 347.6 239 346.4C239 345.8 239.8 344.4 240.8 343.2C243 340.6 242.5 341.4 260.1 314.7C268.3 302.2 274.8 291.5 274.5 291C274.2 290.4 274.6 290 275.4 290C276.3 290 277 289.4 277 288.6C277 287.8 277.4 287 277.8 286.8C279.4 286.2 285.1 277 284.5 276C284.2 275.4 284.5 275 285.2 275C286.3 275 294.7 262.9 295.9 259.6C296.1 259 296.6 258.3 297 258C297.4 257.7 300.9 252.6 304.8 246.5C308.7 240.5 313.3 233.7 314.9 231.4C316.6 229.1 318 226.9 318 226.3C318 225.8 318.9 224.5 320 223.5C321.1 222.5 322 221.1 322 220.3C322 219.6 322.3 219 322.8 219C323.2 219 324.9 216.7 326.5 213.9C330 207.9 332.1 204.6 337.4 196.5C342.7 188.4 343.3 187.5 348.5 179.9C351 176.3 353 173 353 172.6C353 172.3 354.5 169.9 356.4 167.3C358.2 164.6 360.5 160.9 361.5 159C362.5 157.1 363.6 155.3 364 155C364.4 154.7 367.1 150.7 369.9 146.1C372.8 141.5 376.5 135.9 378.1 133.7C379.7 131.5 380.9 129.2 380.7 128.7C380.6 128.2 381.7 126.4 383.3 124.7C384.8 123.1 385.9 121.1 385.6 120.3C385.3 119.6 385.7 119 386.4 119C387.2 119 388.5 117.4 389.5 115.4C390.4 113.4 392.1 110.9 393.2 109.8C394.2 108.8 395 107.4 394.8 106.8C394.6 106.3 395.9 104.1 397.8 102.2C399.6 100.2 401.3 97.5 401.6 96.3C402 95 402.5 94 402.9 94C404.1 94 409 83.7 409 81.4C409 80.2 408.1 78.5 407 77.5C404.6 75.3 405.2 74.8 389.5 90.5C382.9 97.1 376.4 103.4 375 104.5C373.6 105.6 372 107.4 371.4 108.5C370.8 109.6 368.5 111.9 366.2 113.6C364 115.4 362.4 117.1 362.7 117.4C363.1 117.7 362.6 118 361.7 118C360.7 118 360 118.5 360 119.2C360 120.6 355 126 353.8 126C352.7 126 349.3 129.5 345.7 134.3C344.2 136.3 342.4 138 341.9 138C341.3 138 339.5 139.4 337.9 141.1C336.3 142.9 334.8 144.1 334.5 143.9C333.9 143.2 400.1 77.1 403.2 75.3C405.6 73.8 406 73.8 408.4 75.3C410.6 76.8 411 77.8 411 81.8C411 86.1 410 88.1 398.3 106C391.4 116.7 385.2 126.5 384.6 127.7C384 129 383.2 130 382.8 130C382.3 130 382 130.4 382 131C382 132 376 141.6 361.4 163.6C356.2 171.4 352 178.1 352 178.4C352 178.8 351.1 180.3 350.1 181.8C349 183.3 343.8 191.3 338.5 199.5C329.2 213.9 315.7 234.4 294.1 266.7C288.6 275.1 284 282.2 284 282.5C284 282.8 283.5 283.6 283 284.3C282.1 285.3 273.1 299 257.5 323C245 342.2 235.5 356.8 228.4 367.5C224.1 374.1 220.3 379.9 220.1 380.5C219.9 381 219.3 381.9 218.8 382.5C218.3 383 213.7 390 208.5 398C197.4 415.1 194.5 419.4 186.7 429.8C181.8 436.3 180.4 437.6 177.2 438.2C171.4 439.3 169.6 439.1 167.2 437.4Z" fill="#000103"/>
<path d="M120.8 389C120.7 388.5 114 381.3 106 372.9C91.2 357.5 90 356 91.9 356C94.1 356 122 386.2 122 388.7C122 390.2 121.3 390.4 120.8 389Z" fill="#000103"/>
<path d="M465 377C465 376.3 465.9 374.6 466.9 373.2C467.9 371.7 468.8 370.1 468.9 369.5C468.9 369 469.5 367.2 470.2 365.5C471.3 362.7 471.3 362.6 471.7 364.8C472 366.1 471.3 368.6 470.2 370.5C468.4 373.4 468.4 373.9 469.7 374.4C471.6 375.2 474 373.3 474 371.1C474 370.2 475 367.6 476.2 365.3L478.5 361H491.1H503.7L506.8 365.4C508.6 367.8 510 370.5 510 371.2C510 372 510.6 373.4 511.3 374.4C512.4 375.9 512.8 376 513.8 374.8C514.7 373.7 514.3 372.1 512 367.4C510.3 364.2 509 360.9 509 360.2C509 359.5 508.4 357.9 507.8 356.7C507.1 355.5 504 348.5 501 341.1C497.9 333.7 494.7 327.2 493.9 326.7C492.1 325.6 486.6 326.6 487.4 327.9C487.7 328.3 487.1 330.4 486 332.5C484.9 334.6 484.2 336.5 484.4 336.8C485 337.3 480.1 348.1 478.5 350C477.8 350.8 477 353.1 476.6 355.1C476.3 357.1 475 359.6 473.8 360.6C471.7 362.5 471.7 362.5 472.5 360C472.9 358.6 474.3 355.3 475.6 352.6C476.9 349.8 478 347.3 478 346.8C478 346.4 479.8 342.2 482 337.5C484.2 332.8 486 328.4 486 327.6C486 325.3 488.7 323.9 492.6 324.2C496.2 324.5 496.3 324.7 500.2 333.5C504.1 342.7 507.5 350.1 509.1 353.2C509.6 354.2 510 355.4 510 355.9C510 356.5 511.3 359.7 512.9 363.2C517.2 372.8 519 377 519 377.6C519 377.9 516.9 378 514.4 377.8C509.8 377.5 509.8 377.5 507.8 372C506.6 369 505.3 365.9 504.7 365.2C503.2 363.3 480 364 478.9 366C478.5 366.8 477.3 369.8 476.2 372.5C474.2 377.4 474.1 377.5 469.6 377.8C466.6 378 465 377.7 465 377Z" fill="#000103"/>
<path d="M544.4 376.7C539.3 374.7 532.4 368.4 529.9 363.3C528.1 359.5 527.6 356.8 527.6 350.5C527.6 343.2 527.9 341.9 530.9 336.6C535.6 328.5 542.4 324.1 551.1 323.6C558.2 323.1 565.4 325.3 570.2 329.3L572.9 331.5L570.3 334.4C568.2 336.8 567.5 337.2 566.1 336.2C562.1 333.4 558.7 331.9 554.6 331.4C545.4 330.1 537.6 338 536.4 349.8C535.4 359.2 544 369.9 552.6 370C556.5 370 562.8 367.5 565.8 364.7C567.3 363.3 568.4 363 569 363.6C569.7 364.3 568.4 365.5 565.1 367.4C562.3 368.9 559.8 370.5 559.5 371C558.6 372.4 548.9 372.2 546.5 370.7C539.1 366.3 537.9 365.1 536 360.8C533.4 354.7 533.4 346.2 536 340.7C538.5 335.5 539.6 334 543.9 331C548.8 327.6 557.6 327.8 563.1 331.5C567.4 334.3 569 334.6 569 332.6C569 330.4 566.8 329.1 559.6 327.5C548.2 324.8 536.9 328.5 533.7 335.9C533.1 337.3 532 338.8 531.4 339.3C529.9 340.2 530.3 357.2 531.8 361.1C535.6 370.6 548.7 377.7 557 374.8C557.8 374.5 560.3 373.7 562.5 373C567.4 371.5 568.9 370.3 570.1 367.1C571 364.8 571.1 364.8 572.5 366.6C573.8 368.3 573.7 368.7 571.2 370.8C563.9 376.8 551.8 379.5 544.4 376.7Z" fill="#000103"/>
<path d="M603 377.1C596.3 375 589.9 369.2 586.8 362.4C584 356.1 584 345.1 586.7 339C591.4 328.3 599 323.6 611 323.7C615.1 323.8 619.6 324.4 621 325.2C624.8 327.2 630 331 630 331.8C630 332.2 628.8 333.8 627.5 335.3L625 338.1L621.1 335C614.3 329.5 604 330 598.6 336.1C595.3 339.8 592.6 349 593.5 353.9C594.8 362 601.3 368.7 608.7 369.7C612.6 370.2 619.4 367.8 622.8 364.7L625 362.6L627.9 365.4L630.8 368.2L627.4 371.2C621.1 376.8 610.4 379.3 603 377.1ZM619.8 373C624.3 370.8 626 369.5 626 368C626 366.2 625.7 366.2 623.3 367.2C621.7 367.9 619.4 369.2 618.1 370.2C615.2 372.4 608.3 372.6 603.7 370.6C595.9 367.4 589.4 357 590.4 349.4C591.2 343.4 595.3 334.7 598.5 332.2C602.1 329.4 608.3 327.7 612.3 328.5C616.2 329.3 621.7 331.7 622.5 333C622.8 333.6 623.8 334 624.6 334C626.7 334 626.3 330.2 624 329C622.9 328.4 622 328.2 622 328.5C622 328.9 621.4 328.5 620.6 327.8C618.4 325.6 597 326.7 597 329C597 329.5 596 330 594.8 330.2C593.5 330.4 592.6 331.1 592.7 331.7C592.8 332.3 591.9 333.9 590.7 335.2C589.5 336.6 588.3 338.5 588.2 339.6C588 340.6 587.5 341.7 587 342C586 342.7 587.4 358.8 588.8 362C590 364.9 592.7 367.9 597.2 371.3C604.5 376.7 611.1 377.2 619.8 373Z" fill="#000103"/>
<path d="M660.3 376C649.4 371.6 643.7 362.6 643.7 349.8C643.7 342.8 644.1 341.4 647 336.7C654.5 324.2 670.6 319.7 682.9 326.7C688.4 329.9 690.2 331.8 693.4 337.4C697.1 344 697.7 352 695.1 359.5C693.9 362.8 691.9 366.5 690.6 367.9L688.2 370.3L688.3 367.6C688.4 366.2 689.1 364.8 689.8 364.5C690.5 364.2 690.8 363.6 690.5 363C690.2 362.5 690.3 362 690.8 362C692.4 362 694 356 694 349.9C694 345.3 693.3 342.9 690.7 337.9C686.7 330.5 683.5 328.4 672.8 326.6C666.7 325.5 664.9 325.6 662 326.7C654.9 329.6 653 330.5 653 331.1C653 331.4 651.9 332.9 650.6 334.5C648.3 337.2 647.8 338.6 646 347.3C644.2 356.1 650.6 369 658.3 372.4C664.5 375.1 669.9 376.3 672.7 375.6C674.2 375.2 676.7 374.6 678.2 374.3C679.6 374 681.9 372.7 683.1 371.4C685.8 368.5 687 368.4 687 370.8C687 373.5 678.7 377.2 671.5 377.6C667.1 377.9 664.1 377.5 660.3 376Z" fill="#000103"/>
<path d="M722 375.7C719.6 374.5 716.3 371.7 714.6 369.6L711.5 365.8L711.2 344.9L710.9 324H715.2H719.5V343.1V362.2L723.9 366.1C727 368.9 729.2 370 731.4 370C736.1 370 741.5 368.2 743.5 366C745.6 363.6 747 363.4 747 365.4C747 367.7 741.1 371.3 735.8 372.1C730.3 373 725.7 371.8 722.2 368.7C717.6 364.5 717 361.7 717 344.6C717 327.6 716.4 324.5 713.6 327.3C711.7 329.2 711.5 334.6 713.3 335.3C714.2 335.7 714.1 336.1 713 336.9C711.7 337.9 711.7 338.1 713 339C713.8 339.5 714 340 713.4 340C712.1 340 711.9 354.3 713.2 355.1C713.8 355.5 713.7 356.5 712.8 357.9C711.9 359.5 711.8 360.3 712.6 360.8C713.3 361.2 714.4 363.1 715.3 365C717.5 370.3 720.4 372.7 726.4 374.4C732.7 376.3 734.6 376.4 735.5 375C735.8 374.5 737.5 374 739.2 374C743.2 374 748.2 370.2 750.5 365.4C753.4 359.3 753.7 328 750.9 328C750.4 328 750 335.1 750 343.8C749.9 355.3 749.6 360 748.6 361.3C747.9 362.2 747.1 363 746.9 363C746.7 363 746.5 354.2 746.5 343.5V324H751H755.5L755.2 342.2C755 352.3 754.4 362.2 753.9 364.3C751 375.5 733.4 381.8 722 375.7Z" fill="#000103"/>
<path d="M775 351.1V324H779C782.8 324 783.1 324.3 789.9 333.4C793.7 338.6 797.8 343.9 798.9 345.2C804.1 351.3 808.9 358.5 808 358.8C806.9 359.2 803.2 355.2 797.5 347.1C786.2 331.2 781.6 326 778.8 326H776V333.5C776 338.1 776.4 341 777 341C777.7 341 778 346.7 777.8 358C777.5 372.7 777.7 375 779 374.8C780.6 374.4 780.7 373.1 780.9 351.9C781 345 781.3 342.3 782.3 342.3C783.2 342.3 783.5 346.4 783.3 359.9L783.2 377.5L779.1 377.8L775 378.1V351.1Z" fill="#000103"/>
<path d="M815 377.3C813.7 377 812.1 376.2 811.5 375.5C811 374.8 806.5 368.9 801.5 362.3C791.2 348.7 791.8 349.5 788.4 345.3C787 343.5 786 341.5 786.2 340.8C786.4 340.2 788.4 341.9 790.6 344.6C792.7 347.3 794.7 349.7 795 350C797 352 802 360.1 802 361.4C802 362.3 802.7 363 803.5 363C804.3 363 805 363.5 805 364.1C805 364.7 806.1 366.1 807.5 367.2C808.9 368.3 810 369.8 810 370.6C810 371.4 810.4 372 810.9 372C811.4 372 812.6 372.7 813.4 373.6C816.7 376.8 817.1 374.3 816.9 351.2C816.8 338.7 816.5 327.9 816.2 327.3C816 326.6 814.5 326 812.8 326C811.1 326 810.1 325.6 810.5 325C810.8 324.5 813 324 815.3 324H819.5V350.7C819.5 367.1 819.1 377.4 818.5 377.5C817.9 377.6 816.4 377.5 815 377.3Z" fill="#000103"/>
<path d="M854 355V331.9L851.8 332C850.5 332.1 846.7 332.2 843.3 332.1L837 332V328V324H858.6C877.9 324 880.1 324.2 879.6 325.6C879.3 326.5 879 328.5 879 330.2V333.3L870.5 332.6L861.9 332L862.1 354.7L862.2 377.5L858.1 377.8L854 378.1V355ZM859 373.3C859 372.8 859.3 364.9 859.5 355.5C859.8 346.2 860.3 336.6 860.6 334.3C861.1 330.3 861.3 330 864.3 329.9C874.8 329.7 876.5 329.4 876.5 328.2C876.5 327.2 872.1 326.9 857.7 326.7C841.5 326.5 839 326.7 839.2 328C839.4 329.1 841.4 329.7 846 330.1C849.6 330.4 853.2 331 854.1 331.4C856.1 332.3 857.1 342.1 857 359.8C856.9 375.2 856.8 374 858 374C858.6 374 859 373.7 859 373.3Z" fill="#000103"/>
<path d="M896 350.9V323.9L900.3 324.2L904.5 324.5L904.6 351.3L904.8 378H900.4H896V350.9ZM901.1 350.3C901.1 337.2 901 326.1 901 325.7C901 325.2 900.6 325.2 900 325.5C899.4 325.9 899 335.1 899 349.9C899 371.2 899.3 376 900.8 374.6C901 374.3 901.2 363.4 901.1 350.3Z" fill="#000103"/>
<path d="M924.9 377.6C924.7 377.4 924.6 365.2 924.8 350.6L925.1 324H929C931.8 324 933.2 324.5 933.9 325.9C934.5 326.9 936.5 329.7 938.5 332.1C943.1 337.8 943.1 337.9 946 342C947.3 343.9 950.3 347.8 952.6 350.5C957.1 355.9 959.5 360 958.3 360C957.3 360 951.9 353.4 935.2 331.6C932 327.4 930.2 326 928.4 326C926.5 326 926 326.4 926.4 327.8C926.8 329 927.7 357.2 928 374.3C928 374.7 928.5 375 929 375C929.6 375 930 368.7 930 358C930 343.6 930.2 341 931.5 341C932.7 341 933 342.9 933 352.3C933.1 358.4 933.2 366.8 933.3 370.8L933.5 378H929.4C927.2 378 925.1 377.8 924.9 377.6Z" fill="#000103"/>
<path d="M959.2 373.2C956.5 369.3 945.9 355.2 937 343.8C935.9 342.3 935.4 340.9 935.9 340.6C936.4 340.2 938.7 342.6 940.9 345.7C943.2 348.9 946.1 352.8 947.5 354.5C948.9 356.1 950 358.2 950 359.2C950 360.2 950.6 361 951.3 361C952.7 361 960 369.7 960 371.5C960 372.9 964.5 375.4 965.7 374.7C966.2 374.4 966.5 372.9 966.4 371.3C966.3 369.8 966.1 359 966.1 347.3C966 328.9 965.8 326.1 964.5 326.6C963.3 327.1 963 329.9 963 343C963 352.5 962.6 359.1 962 359.5C961.3 359.9 961 354.2 961 343.1C961 333.7 961 325.7 961 325.3C961 324.8 962.8 324.4 965 324.2L969 323.9V350.9V378H965.8C963 378 962 377.2 959.2 373.2Z" fill="#000103"/>
<path d="M1000.7 375.3C992 370.5 987 362 987.2 352V346.5L988 351.5C988.4 354.3 989.5 357.8 990.3 359.4C991.2 361 991.6 362.8 991.4 363.5C990.7 365.3 997.5 371.7 1001.5 373C1003.4 373.6 1005.2 374.6 1005.5 375.1C1006.3 376.2 1018.3 376.3 1019.6 375.2C1020.1 374.7 1022.5 373.5 1025 372.6C1031.3 370.1 1032.4 368.1 1032.5 358.3L1032.6 349.9L1024.1 350.2C1018.5 350.4 1015.5 350.9 1015.2 351.8C1014.9 352.7 1016.5 353 1020.9 353C1029.1 353 1028.7 354.7 1020.5 355.2C1014.4 355.5 1014 355.4 1014 353.3C1014 352.1 1013.7 350.5 1013.4 349.6C1012.9 348.2 1014.2 348 1023.9 348H1035.1L1034.8 359.2L1034.5 370.3L1031.5 372.1C1024.4 376.4 1021.3 377.3 1013.5 377.6C1006.4 377.9 1004.9 377.6 1000.7 375.3Z" fill="#000103"/>
<path d="M1098 376.7C1093.8 375.3 1085.9 367.8 1083.7 363C1080.5 356 1080 350.3 1082 343.3C1085.1 332.1 1093.4 324.6 1104.1 323.4C1111.1 322.6 1119.2 324.9 1124.1 329.1L1127.5 332L1124.6 334.5C1121.3 337.4 1120.7 337.5 1118.8 335.8C1116 333.2 1112.6 331.8 1108 331.3C1104 330.9 1102.6 331.2 1099.2 333.5C1094.2 336.8 1092.7 339 1091 345.7C1089.8 350.3 1089.8 351.6 1091.3 356.3C1092.2 359.3 1093.8 362.7 1094.9 363.8C1097 366.3 1104.6 369.9 1107.6 370C1110.4 370 1115.8 367.7 1119.3 365L1122.1 362.8L1125.1 365.8L1128.1 368.7L1123.3 371.8C1113.7 378 1106.5 379.4 1098 376.7ZM1119.4 371C1122.3 368.9 1123.7 367.3 1123.1 366.7C1122.5 366.1 1120.7 366.9 1118.4 368.6C1115.1 371.2 1113.8 371.5 1107.6 371.5C1101.1 371.5 1100.2 371.2 1096.4 368.2C1092.3 364.9 1091.1 363.2 1088.9 357.5C1087.6 354.3 1087.7 346.7 1088.9 346.2C1089.4 346.1 1089.5 344.9 1089.3 343.6C1088.7 340.4 1091.3 335.6 1095.2 332.7C1101.8 327.8 1112 327.4 1118.1 331.9C1121.6 334.5 1122 334.5 1122 332.1C1122 327.8 1108.4 324.7 1099.2 327C1093.6 328.3 1087.8 333 1086.5 337.1C1086.1 338.4 1085.3 339.8 1084.7 340.1C1084.2 340.5 1083.8 341.9 1083.8 343.4C1083.8 344.8 1083.3 346 1082.7 346C1081 346 1082.6 356.3 1085.1 360.5C1091.1 371.1 1097.9 375.3 1108.1 374.7C1113.7 374.3 1115.5 373.7 1119.4 371Z" fill="#000103"/>
<path d="M1158.1 376.4C1152.5 374 1146.6 368.6 1144 363.4C1141.9 359.4 1141.5 357.2 1141.5 350.1C1141.5 342.8 1141.9 340.9 1143.9 337.5C1147.4 331.8 1149.9 329.2 1154.9 326.2C1158.7 324 1160.4 323.6 1167.5 323.7C1173.8 323.8 1176.4 324.3 1179.5 326C1200 337.3 1199.5 365.7 1178.5 375.6C1172.6 378.4 1163.4 378.8 1158.1 376.4ZM1178.7 372.6C1183.6 370.1 1188.9 364.1 1190.2 359.6C1190.8 357.3 1191.3 352.6 1191.2 349.1C1190.9 328.8 1171.3 319.9 1151.7 331C1149 332.5 1147 333.9 1147.1 334.1C1147.5 334.9 1145.8 339 1145.1 339C1144.6 339 1144.2 342.7 1144.1 347.2C1144 351.7 1143.7 355.7 1143.5 356.1C1142.7 357.3 1147.7 365.3 1151.3 368.8C1153.2 370.7 1156.5 372.8 1158.6 373.6C1163.5 375.4 1174.4 374.9 1178.7 372.6Z" fill="#000103"/>
<path d="M1160.3 371C1159 370.5 1156.1 368.1 1153.7 365.7C1150 362.1 1149.1 360.4 1148.1 355C1147 349.3 1147 348 1148.6 343.3C1151 336.2 1156.4 330.7 1162.1 329.4C1170.9 327.4 1178.4 330.4 1184 338.2C1186.3 341.3 1186.7 342.8 1186.3 345.6C1185.9 347.8 1186.1 349 1186.9 349C1187.5 349 1188 350.1 1188 351.5C1188 352.9 1187.6 354 1187 354C1186.5 354 1186.1 355.1 1186.2 356.4C1186.5 359.8 1182.9 366 1180.3 366.7C1179 367 1178.2 367.6 1178.5 368C1180.2 370.7 1165.3 373.2 1160.3 371ZM1174.3 368.6C1178.2 366.9 1181.2 364.3 1183 361C1184.9 357.5 1185.2 356.3 1185.2 349.8C1185.2 345.2 1184.7 343.3 1182.3 339.9C1177.8 333.2 1174.9 331.5 1167.7 331.5C1162.7 331.5 1160.8 332 1158.1 333.9C1154.1 336.8 1150 345.3 1150 350.8C1150 354.6 1153 362.2 1155.5 364.6C1160.5 369.7 1168.1 371.3 1174.3 368.6Z" fill="#000103"/>
<path d="M1212.5 351V324H1217L1221.5 324.1L1228.8 334.9C1236.4 346.3 1238.3 351.3 1232.5 344.5C1230.6 342.3 1229 340.1 1229 339.6C1229 339.1 1226.7 335.7 1224 332C1220.1 326.7 1218.5 325.3 1217 325.7C1215.1 326.2 1215 327.2 1215 350.7C1215 369.8 1215.3 375.1 1216.3 374.8C1217.2 374.4 1217.6 369.6 1218 357.2C1218.7 333.4 1220.4 334.6 1220.8 359L1221 378H1216.8H1212.5V351Z" fill="#000103"/>
<path d="M1255.9 377.3C1255.3 371.2 1255.7 344.5 1256.4 345.8C1256.9 346.7 1257.5 353.4 1257.6 360.7C1257.8 368 1258.2 374.5 1258.5 375C1260.4 378.2 1261 372.7 1261 350.4V326H1258.6C1256.6 326 1255.1 327.5 1251.3 333.1C1248.7 337.1 1245.3 341.7 1243.8 343.4C1238.7 349.4 1240.3 345.4 1247.4 334.8L1254.5 324H1259.3H1264V351V378H1260C1257.8 378 1256 377.7 1255.9 377.3Z" fill="#000103"/>
<path d="M1284 351V324H1296.3C1311 324.1 1316.9 325.7 1321.1 331C1323.5 333.9 1324 335.6 1324.1 340.8C1324.3 346.3 1323.9 347.6 1321.4 351.2C1317.4 356.8 1312 358.9 1300.6 358.9L1291.8 359L1292.2 368.5L1292.6 378H1288.3H1284V351ZM1289.8 365.8L1290.1 357.2L1293.2 356.6C1294.9 356.3 1299.3 356 1302.9 356C1310.6 356 1316.6 353.7 1320 349.3C1321.9 346.9 1322.1 345.6 1321.7 340.2C1321 330.4 1316.3 327 1303.3 327C1300 327 1297 326.7 1296.7 326.3C1296.3 326 1293.8 325.5 1291.2 325.4L1286.4 325.2L1286.6 349.8C1286.7 363.4 1286.9 374.7 1286.9 374.8C1287 375 1287.6 375 1288.3 374.8C1289.1 374.5 1289.6 371.5 1289.8 365.8Z" fill="#000103"/>
<path d="M1295 353C1294.2 352.5 1292.7 351.9 1291.8 351.6C1290.2 351.1 1290 349.7 1290 340.5C1290 332.8 1290.3 330 1291.3 329.9C1296.2 329.4 1310 330.5 1312 331.5C1315 333.1 1317.6 336 1318.4 338.8C1319.4 341.9 1314.5 351 1311.9 351C1310.8 351 1308.5 351.7 1306.8 352.6C1304.3 353.9 1303.6 354 1302.9 352.8C1302.2 351.8 1302 351.8 1302 352.8C1302 354.2 1297.3 354.3 1295 353ZM1308.4 350.3C1314.9 349.3 1318.1 341.3 1314.1 336.1C1312.1 333.5 1306.6 332.1 1297.8 332H1292V341.5V351H1298.3C1301.7 351 1306.2 350.7 1308.4 350.3Z" fill="#000103"/>
<path d="M1330 377C1330 376.4 1330.4 375.2 1331 374.2C1332.5 371.6 1343.2 346.7 1347.5 336C1349.6 330.8 1351.7 325.9 1352.3 325.3C1353.7 323.4 1362 323.6 1362 325.5C1362 326.4 1363.4 330 1365 333.5C1366.7 337 1368 340.1 1368 340.4C1368 340.7 1369.2 343.5 1370.6 346.7C1372 349.9 1373.8 354 1374.6 355.8C1375.4 357.5 1376.7 360.5 1377.5 362.4C1378.3 364.3 1379 366.1 1379 366.4C1379 366.7 1380.1 369.3 1381.5 372.2C1382.9 375 1384 377.5 1384 377.7C1384 377.9 1381.9 378 1379.3 377.8L1374.5 377.5L1372 370.8L1369.6 364H1357H1344.5L1343.2 367.3C1342.4 369 1341.5 371.4 1341 372.5C1340.6 373.6 1339.9 375.3 1339.6 376.3C1339.2 377.6 1338 378 1334.5 378C1332 378 1330 377.5 1330 377ZM1339.5 368.8C1342.9 360.9 1342.8 361 1357.1 361H1369.9L1371.7 364.3C1372.6 366 1373.3 368.1 1373.1 368.9C1372.7 371.2 1375.2 375 1377.1 375C1379.9 375 1379.9 372.8 1376.8 367.2C1375.3 364.3 1374 361.1 1374 360C1374 359 1373.6 357.9 1373.1 357.6C1372.7 357.3 1370.8 353.3 1369 348.8C1367.2 344.2 1365.4 340.1 1365 339.5C1364.6 339 1363.9 337 1363.5 335.3C1363.2 333.5 1362.4 332 1361.9 332C1361.4 332 1361.1 331.7 1361.2 331.3C1361.7 329.4 1358.8 326 1356.6 326C1353.7 326 1352.2 327.7 1351.4 331.8C1351 333.5 1350.1 335.5 1349.4 336.1C1348.6 336.7 1348 337.7 1348 338.3C1348 338.9 1347.1 341.4 1345.9 343.9C1344.8 346.4 1343.4 349.6 1342.8 351C1342.2 352.4 1341.1 354.7 1340.3 356.3C1339.5 357.8 1339.2 359 1339.6 359C1339.9 359 1339.7 359.6 1339.1 360.3C1338.5 361.1 1338.3 361.9 1338.6 362.2C1338.9 362.5 1338.2 364.4 1337 366.4C1334.7 370.7 1334.2 375.9 1336.3 374.1C1337.1 373.5 1338.5 371.1 1339.5 368.8Z" fill="#000103"/>
<path d="M1348 357C1348 356.4 1351.5 356 1356.5 356C1361.5 356 1365 356.4 1365 357C1365 357.6 1361.5 358 1356.5 358C1351.5 358 1348 357.6 1348 357Z" fill="#000103"/>
<path d="M1347 353.3C1347 352.2 1348.3 348.1 1349.9 344.1C1351.6 340.2 1352.7 337 1352.4 337C1352.1 337 1352.6 336.3 1353.5 335.4C1354.7 334.1 1355.4 334 1356.3 334.9C1357.1 335.7 1357.1 336 1356.2 336C1355.5 336 1355 336.6 1355 337.3C1355 338.9 1349.1 353.3 1347.9 354.5C1347.4 355 1347 354.6 1347 353.3Z" fill="#000103"/>
<path d="M1365.7 354.4C1364.3 352.2 1358 336.6 1358.4 336.3C1359.4 335.3 1367.2 351.6 1366.8 353.8C1366.6 354.9 1366.2 355.1 1365.7 354.4Z" fill="#000103"/>
<path d="M1400.2 351V324H1404.5C1408.5 324 1409 324.3 1411.4 328.3C1412.8 330.6 1415 333.9 1416.4 335.5C1426.8 348.1 1435 359.1 1435 360.4C1435 362.7 1430.3 357.4 1419.4 342.9C1409.8 330.3 1406 326 1404.4 326C1402.8 326 1402.4 326.5 1402.7 328.3C1402.9 329.5 1403.1 340.1 1403.3 351.9C1403.4 368 1403.8 373.4 1404.8 373.8C1405.7 374.1 1406 370.6 1406 358.6C1406 347.9 1406.3 343 1407.1 343C1407.7 343 1408 342.3 1407.6 341.5C1407.3 340.7 1407.5 340 1408 340C1408.6 340 1409 347.4 1409 359V378H1404.6H1400.1L1400.2 351Z" fill="#000103"/>
<path d="M1432.5 370C1429.2 365.6 1425.5 360.7 1424.2 359.2C1420.8 355.2 1411 341.3 1411 340.5C1411 340.1 1412 341 1413.3 342.5C1414.5 344 1416.7 346.5 1418.2 348.1C1422.4 352.5 1429 361.5 1429 362.7C1429 363.3 1429.7 364 1430.5 364.4C1431.3 364.7 1432 365.4 1432 365.9C1432 367.5 1440.2 376 1441.1 375.4C1441.6 375.1 1442 363.9 1442 350.4C1442 326.9 1441.9 326 1440.1 326C1437.8 326 1436.5 327.6 1438 328.5C1438.6 328.9 1439 334.4 1439 342.1C1439 352.9 1438.8 355 1437.5 355C1436.2 355 1436 352.6 1436 339.5V324H1440.3H1444.5V351V378H1441.5C1438.9 377.9 1437.6 376.8 1432.5 370Z" fill="#000103"/>
<path d="M1481.7 377.3C1481.3 377 1481 372.2 1481 366.8C1481 358.8 1481.3 357 1482.5 357C1483.3 357 1484 357.9 1484 359C1484 360.1 1483.6 361 1483 361C1482.5 361 1482 362.8 1482 365C1482 367.2 1482.5 369 1483.1 369C1483.7 369 1484.1 370.2 1484 371.8C1483.7 376 1483.9 376.3 1485.5 375C1486.6 374 1487 371.4 1487 364C1487 358.6 1487.4 354 1487.8 353.8C1488.3 353.7 1489.9 351 1491.4 348C1492.9 345 1495.5 340.6 1497.3 338.3C1501.9 332.3 1505.2 326.8 1504.5 326.2C1503.1 324.7 1499 328.3 1496.9 332.9C1495.7 335.7 1494 338 1493.3 338C1492.6 338 1492 338.7 1492 339.6C1492 340.5 1491.1 342.3 1490 343.7C1488.2 346 1488 346 1488 344.3C1488 343.3 1490 339.6 1492.4 336.1C1494.8 332.7 1497.4 328.6 1498 326.9C1499.2 324.2 1499.6 324 1504.6 324C1507.6 324 1510 324.5 1510 325C1510 325.6 1509.6 326 1509.1 326C1508.7 326 1507.2 328 1505.9 330.5C1504.6 333 1503.2 335 1502.8 335C1502.3 335 1502 335.5 1502 336C1502 336.6 1499.3 341.1 1496 346L1490 354.9V366.5V378H1486.2C1484.1 378 1482 377.7 1481.7 377.3Z" fill="#000103"/>
<path d="M660.2 368.9C653.4 363.9 647.5 354 651.3 354C652.1 354 652.1 353.7 651.1 353.1C649.4 352 650.1 344 652.4 339.5C656.3 331.9 661.7 328.5 669.6 328.7C677.5 328.9 686 334.6 686 339.7C686 341 686.5 342 687 342C687.6 342 688 343.1 688 344.5C688 345.9 688.5 347 689 347C689.6 347 690 348.8 690 351C690 353.2 689.6 355 689 355C688.5 355 688 356.4 688 358.2C688 360.8 686.9 362.4 682.4 366.7C676.9 371.9 676.7 372 670.6 372C665.2 372 663.8 371.6 660.2 368.9ZM679.4 367.1C684.3 364 687.3 358 687.4 351C687.5 340.5 681.1 332.7 671.5 331.5C656.2 329.5 647 348.2 656.3 362.5C661 369.8 671.6 371.9 679.4 367.1Z" fill="#000103"/>
<path d="M1006 370.3C999 366.7 992.2 358 996.5 358C997.3 358 998 358.7 998 359.6C998 362.5 1001.9 366.7 1006 368.4C1011 370.4 1016.7 370.4 1021.3 368.5C1025.6 366.7 1025.9 366.2 1027.1 360.2L1027.9 355.5L1027.5 361C1026.9 368.8 1024.1 371.3 1015.8 371.7C1011.2 372 1008.5 371.6 1006 370.3Z" fill="#000103"/>
<path d="M1237.3 362.3C1236.6 362.1 1236 361.4 1236 361C1236 360.5 1234.9 358.4 1233.5 356.4C1230.7 352.3 1230.2 350.1 1232.5 352C1233.3 352.7 1234 353.8 1234 354.4C1234 355.5 1237.9 358.5 1238.5 357.8C1238.6 357.6 1241.1 354 1244 349.7C1246.8 345.4 1249.8 341.6 1250.6 341.3C1251.4 341 1252 340.2 1252 339.4C1252 338.6 1252.5 338 1253 338C1253.6 338 1254 338.2 1254 338.5C1254 339 1244.5 353.9 1243.1 355.6C1242.6 356.2 1241.5 358.1 1240.6 359.8C1239.7 361.6 1238.8 363 1238.7 362.9C1238.6 362.9 1237.9 362.6 1237.3 362.3Z" fill="#000103"/>
<path d="M482.3 356.8C481.8 356.1 481.4 355.1 481.5 354.5C481.9 352.1 483.4 347.4 484.6 345.1C485.4 343.7 486 341.5 486 340.4C486 338.1 489.5 333 491.1 333C491.6 333 492 333.7 492 334.5C492 335.3 491.6 336 491 336C490.5 336 490 336.8 490 337.8C490 338.7 489.1 341.3 488.1 343.5C485.5 348.8 483 354.7 483 355.4C483 355.7 486.4 356 490.5 356C494.8 356 498 356.4 498 357C498 358.5 483.5 358.3 482.3 356.8Z" fill="#000103"/>
<path d="M811.1 344.8C811.1 337.9 810.7 331.5 810.4 330.6C810 329.4 810.4 329 811.9 329C813.9 329 814 329.5 814 341C814 347.7 813.6 353 813.1 353C812.6 353 811.9 354 811.7 355.3C811.5 356.5 811.2 351.8 811.1 344.8Z" fill="#000103"/>
<path d="M88.9 355.1C88.7 354.5 84.9 350.3 80.4 345.8C76 341.2 61.5 325.8 48.3 311.5C35.1 297.2 18.9 279.9 12.2 273C-2 258.4 -2.6 256.7 4 251.3C6.5 249.1 8.9 248 11 248C14.5 248 20.9 245 29.9 239C38.6 233.2 41.8 232.9 47.2 237.1C49.6 239 53.3 242.1 55.5 244.1C58.7 247 94.9 277.4 101 282.3C105.6 285.9 113.7 292.7 114.8 293.8C115.6 294.5 117.8 296.3 119.8 297.8C121.9 299.3 123.7 300.7 124 301C124.8 301.9 142.3 316.4 145.4 318.8C147.5 320.4 149.7 321 153.2 321H158.1L219 259.8C252.5 226.1 280.3 198.9 280.7 199.3C281.1 199.7 269.6 211.8 255.2 226.2C240.8 240.6 229 252.7 229 253.2C229 253.6 228.4 254 227.6 254C226.9 254 225.5 255.1 224.6 256.5C223.7 257.9 222.3 259 221.4 259C220.6 259 220.2 259.5 220.6 260.1C221.4 261.4 215.5 267 213.4 267C212.6 267 212.1 267.4 212.5 267.9C213.2 269.1 205.1 276.9 203.2 277C202.5 277 202.2 277.4 202.5 278C202.8 278.5 193.6 288.7 181.9 300.5C164.5 318.1 160 322.2 156.8 323.1C151.3 324.5 148 323.6 142.3 318.7C139.5 316.4 132 310.2 125.5 305C119 299.8 111.2 293.4 108.1 290.8C96 280.6 61.8 252.1 52.6 244.6C40.9 235 38.9 234.6 31.7 240.2C29 242.3 26.4 244 26 244C25.5 244 23.4 245.1 21.4 246.5C19.4 247.8 16.2 249.2 14.1 249.6C7.4 250.8 1.5 255.2 2.2 258.4C2.3 259.2 9 266.5 17 274.7C30.5 288.6 47.9 307.1 56.3 316.6C58.4 318.9 60 321.4 60 322.3C60 323.2 60.8 324.1 61.9 324.5C63.8 325.1 79.2 340.2 79.9 342.2C80.1 342.8 81.8 344.6 83.7 346.3C87.1 349.3 90.6 354.8 89.7 355.7C89.4 355.9 89 355.7 88.9 355.1Z" fill="#000103"/>
<path d="M1479.4 352.7C1478.2 350.9 1473.7 344.1 1469.4 337.5C1465.1 330.9 1461.4 325.2 1461.2 324.8C1461 324.3 1463.3 324 1466.2 324C1471.3 324 1471.7 324.2 1473.3 327.3C1477.5 335.2 1485.2 346.5 1486.3 346.2C1487.2 345.9 1487.2 346.2 1486.3 347.1C1484.8 348.7 1482.9 347.2 1479.9 342.1C1474.6 333.2 1468.5 325 1467.3 325C1464.9 325 1466 327.9 1472 337.2C1478.1 346.5 1482.5 354.8 1481.8 355.5C1481.6 355.7 1480.5 354.4 1479.4 352.7Z" fill="#000103"/>
<path d="M498.5 349.4C497.1 346.2 495.5 342.7 495 341.8C493.8 339.7 493.7 337 494.8 337C495.6 337 500 345.7 500.4 348.1C500.5 349.1 501.2 350.5 502 351.4C503 352.7 503 353.4 502.2 354.2C501.3 355.1 500.4 353.8 498.5 349.4Z" fill="#000103"/>
<path d="M993.5 351.3C993.8 347.3 993.9 347 995 347C995.6 347 996 348.6 996 350.5C996 352.8 995.5 354 994.6 354C993.8 354 993.4 353 993.5 351.3Z" fill="#000103"/>
<path d="M1226.8 347C1225.2 344.9 1224 342.7 1224 342.2C1224 341.7 1223.3 340.7 1222.5 340C1220.8 338.6 1220.5 337 1222 337C1222.6 337 1223 337.7 1223 338.5C1223 339.3 1223.4 340 1223.9 340C1225.2 340 1230.2 348 1229.8 349.5C1229.6 350.3 1228.4 349.3 1226.8 347Z" fill="#000103"/>
<path d="M995.3 344.1C994.3 342.6 994.4 341.9 995.5 341C996.3 340.3 997 339 997 338.1C997 336.3 999.9 333.5 1004.5 330.5C1008.7 327.9 1018.7 328 1023.3 330.8C1025.5 332 1027.2 332.5 1028.1 331.9C1030.3 330.6 1027 327.9 1022.5 327.5C1020.4 327.3 1018.4 326.8 1018.1 326.3C1017.2 324.9 1014.1 324 1013.5 325C1013.2 325.4 1009.7 326.4 1005.7 327C997.7 328.4 996.4 329.4 992.4 337.3C991.1 339.9 989.5 342 989 342C987.5 342 987.8 341.2 990.2 337.1C996.1 327.1 1002.1 323.7 1013.5 323.7C1021.5 323.6 1025.7 324.9 1031.5 329.3C1033.5 330.8 1033.5 330.9 1030.6 333.9L1027.8 336.9L1024.1 334.5C1019.8 331.7 1014.3 330.5 1009.6 331.4C1005.4 332.2 998.4 338.8 997.3 343C996.5 345.8 996.4 345.9 995.3 344.1Z" fill="#000103"/>
<path d="M132 271.9C130.6 270.7 128.2 268.6 126.5 267.1C123.5 264.4 115.6 258 108.4 252.5C106.3 250.9 101.9 247.3 98.5 244.5C95.2 241.8 91.7 238.8 90.6 238C89.6 237.2 86.9 234.9 84.6 233C82.2 231.1 78.9 228.4 77.2 227.1L74 224.7V167.4V110H104.8H135.5V192C135.5 237.1 135.3 274 135 274C134.7 273.9 133.4 273 132 271.9ZM132.7 190.5L132.5 112H104.1H75.7L76.3 167.8L76.8 223.5L88.3 233C94.6 238.2 102.8 245 106.5 248C110.2 251 117.4 257 122.4 261.2C127.4 265.4 131.8 268.9 132.2 268.9C132.6 269 132.9 233.7 132.7 190.5Z" fill="#000103"/>
<path d="M168 164.3V56.5L197.7 56.8C214.1 57 227.6 57.3 227.7 57.4C227.9 57.5 228 93.1 228 136.5L228.1 215.4L225.7 217.4C220.6 221.8 194.9 246.1 182 258.7C174.6 266 168.4 272 168.3 272C168.1 272 168 223.5 168 164.3ZM182.7 254.5C188.9 248.2 194 242.6 194 242C194 241.5 194.5 241 195.1 241C196.6 241 199.7 238.4 211.6 227.3C217.3 221.9 222 217 222 216.4C222 215.7 222.9 215 224 214.7C225.9 214.2 226 213 226.2 136.8C226.4 94.3 226.4 59.3 226.3 59.2C225.9 58.3 201 58.2 201 59.1C201 60.3 197.3 60.3 196.6 59.1C195.9 58 182.5 57.7 175.3 58.6L170 59.2V162.6C170 219.5 170.3 266 170.7 266C171.1 266 176.5 260.8 182.7 254.5Z" fill="#000103"/>
<path d="M1269 259C1250.5 255.3 1245 252.8 1236 244.4C1231 239.6 1228.5 236.3 1226.1 231C1220.6 219.1 1220 213.3 1219.3 162.3C1219 136.8 1219 116 1219.3 116C1221.3 116 1221.9 128 1222.1 170C1222.3 207.9 1222.6 216.7 1223.7 217.9C1224.6 218.8 1224.9 220.3 1224.5 222.1C1224.1 223.8 1224.3 225 1224.9 225C1225.4 225 1227.3 227.9 1229.1 231.5C1232.4 238.2 1240.6 247.5 1244.4 248.6C1245.5 248.9 1247.2 249.8 1248 250.5C1253.1 254.6 1271.2 257.5 1287.2 256.6C1298.6 256 1311.2 253.2 1312.5 251C1312.8 250.4 1313.9 250 1314.8 250C1317.8 249.9 1325.9 243.2 1330.5 236.9C1340.2 223.7 1342.3 208.1 1341.8 152.7C1341.6 132.5 1341.7 115.9 1342 115.7C1342.3 115.6 1343.3 113.9 1344.2 111.9C1345.7 108.5 1346.2 108.2 1351.7 107.5C1358.4 106.7 1360 105.7 1360 102.4V100H1336.6H1313.2L1312.6 102.6C1311.8 105.7 1311.4 105.3 1317 106.9C1325.9 109.5 1326.9 110.1 1328.9 114.4C1330.8 118.3 1330.9 120.7 1331 160.8C1331 191.8 1330.7 203 1329.9 203C1329.1 203 1328.9 204.2 1329.3 206.5C1330.2 212.3 1324.5 226.9 1320.5 229C1319.2 229.7 1317.7 231.3 1317.1 232.6C1316.5 233.9 1315.4 235 1314.5 235C1313.7 235 1313 235.5 1313 236C1313 236.6 1311.8 237.6 1310.3 238.2C1308.7 238.9 1306.8 240 1306 240.7C1302.6 243.4 1291.8 245.3 1282.5 244.7C1272.8 244.1 1267.5 242.1 1259.8 236C1255 232.1 1250.3 222.4 1249 213.5C1247.4 203 1248.1 112.8 1249.8 110.8C1250.5 109.9 1253.2 108.7 1255.8 108C1261.7 106.4 1263 105.4 1263 102.4V100H1234.1H1205.2L1204.7 102.7C1204.2 105.6 1205.4 107.2 1207.7 106.3C1208.4 106 1209 106.3 1209 106.9C1209 107.5 1210 108 1211.3 108C1214.5 108 1218 110.7 1218 113.2C1218 115.1 1217.9 115.1 1216.1 112.9C1214.7 111.2 1212.5 110.2 1208.3 109.5L1202.5 108.5L1202.2 103L1201.9 97.5L1233.7 97.6L1265.5 97.7V103.1V108.5L1260.7 109.2C1254.4 110.1 1251.4 112.1 1250.6 116.2C1250.2 118 1250 138.9 1250 162.5C1250.2 217.6 1251.3 225.3 1260.7 234.3C1265.7 239.1 1273.4 241.9 1283.5 242.7C1306.5 244.4 1324.4 230 1327.9 207C1328.4 203.3 1328.8 182.5 1328.7 159C1328.5 124.2 1328.3 117 1327 114.5C1325.5 111.5 1324.5 111.1 1312.5 108.5C1310.8 108.1 1310.5 107.4 1310.8 102.8L1311.2 97.5L1336.3 97.7L1361.5 98L1361.8 103.5L1362.1 109H1358.4C1356.4 109 1353 109.5 1351 110.1C1344.1 112.2 1344.1 112.4 1343.7 164C1343.4 209.1 1343.3 209.6 1340.8 219C1339.4 224.2 1337.5 230.2 1336.6 232.4C1334.4 237.4 1325.8 246.4 1319.5 250.5C1314.3 253.8 1303.3 257.6 1296.5 258.4C1287.6 259.6 1273.2 259.9 1269 259Z" fill="#000103"/>
<path d="M1163 258.2C1161.6 258 1159.5 256.6 1158.3 255.1C1156 252.3 1121.2 207.4 1115.7 200.2C1110.9 193.9 1106.8 188.5 1104.2 185.3C1103 183.8 1097.8 177.1 1092.7 170.5C1087.7 163.9 1080 154 1075.8 148.5C1071.5 143 1068 137.9 1068 137C1068 135.4 1072.9 140.7 1073 142.4C1073 142.8 1074.1 144.1 1075.5 145.2C1076.9 146.3 1078 147.8 1078 148.6C1078 149.4 1078.3 150 1078.8 150C1079.8 150 1088 160.6 1088 161.9C1088 162.5 1088.4 163 1088.8 163C1090.4 163 1122 203.7 1122 205.8C1122 206.5 1122.4 207 1122.9 207C1123.4 207 1126 209.8 1128.6 213.3C1131.2 216.7 1133.7 219.7 1134.2 219.8C1134.6 220 1135 220.9 1135 221.8C1135 222.8 1135.9 224.1 1137 224.8C1138.1 225.5 1139 226.4 1139 226.9C1139 227.3 1140.6 229.4 1142.5 231.4C1144.4 233.5 1146 235.5 1146 235.9C1146 236.4 1147.6 238.4 1149.5 240.4C1151.4 242.5 1153 244.5 1153 244.9C1153 245.4 1155.1 248 1157.7 250.9C1161.7 255.3 1162.8 256 1166.2 256H1170V187C1170 137 1170.3 118 1171.1 118C1171.8 118 1172.1 116.8 1171.8 115.1C1171.5 112.8 1172 111.9 1174.9 109.9C1176.8 108.6 1179.1 107.5 1179.9 107.4C1180.8 107.3 1182.5 107.2 1183.8 107.1C1185.8 107 1186.1 106.5 1185.8 103.8L1185.5 100.5L1163.4 100.2L1141.2 100L1140.6 102.6C1140.2 104 1140.1 105.4 1140.3 105.6C1140.5 105.9 1143.6 106.5 1147.1 107.2C1156.1 108.7 1158.7 110.3 1159.9 114.8C1161.3 119.5 1161.3 126 1160 126C1159.2 126 1158.4 118 1158.9 114.8C1159.2 112.7 1153.3 110.1 1147 109.4C1143.1 109.1 1139.6 108.2 1139.1 107.6C1138.7 107 1138.3 104.5 1138.4 102.1L1138.5 97.7L1163.3 97.5L1188 97.4V102.6C1188 108.3 1187.8 108.4 1178.9 110.4C1177.4 110.7 1175.4 112.2 1174.4 113.7C1172.6 116.4 1172.5 120 1172.2 187.3C1172 253.4 1171.8 258 1170.2 258.1C1169.3 258.1 1167.8 258.3 1167 258.4C1166.2 258.5 1164.4 258.4 1163 258.2Z" fill="#000103"/>
<path d="M547.9 255.3C539.7 234.1 534 219.7 532 215.3C530.9 212.9 530 210.5 530 209.9C530 209.3 529.4 207.6 528.6 206.2C527.8 204.7 524.7 197.4 521.7 190C518.6 182.6 513.9 171 511.1 164.2C505.2 150 502 141.8 502 140.8C502 140.3 502.4 140 502.9 140C504 140 506.5 146.9 506.1 148.9C506 149.7 506.3 150.6 506.7 150.9C508.2 151.9 514 164.1 514 166.2C514 167.2 514.3 168 514.8 168C515.4 168 516.9 171.5 518.1 176C518.3 176.8 518.7 177.7 519 178C519.3 178.3 520.6 181.2 521.9 184.5C523.2 187.8 525 192.3 526 194.6C532.7 209.6 538.3 223.8 538.3 225.9C538.3 227.3 538.8 228.9 539.5 229.5C540.2 230 542.7 235.4 545 241.4C549.9 254.2 550.9 256 553.2 256C555.4 256 555.9 255.1 559.2 245.5C560.7 241.1 562.5 236.5 563.1 235.3C563.7 234.2 563.9 232.7 563.6 232.1C563.2 231.5 563.4 231 564 231C564.6 231 565.3 230.2 565.7 229.3C566 228.3 568.2 222.4 570.6 216.3C573.1 210.1 575.1 204 575.3 202.8C575.4 201.5 575.9 200.2 576.3 199.9C577.1 199.3 587 175.2 587 173.8C587 172.9 595.5 151.1 598 145.5C599 143.2 600.2 140.2 600.5 138.7C601.2 135.9 602.7 134.4 603.7 135.4C604.3 135.9 603.2 139.1 600 146.5C599.1 148.7 597.1 153.9 595.5 158C594 162.1 592.4 166.3 591.9 167.2C591.4 168.2 591 169.5 591 170.1C591 170.7 590.3 172.8 589.4 174.8C587.2 179.8 586.6 181.5 583.9 188.5C582.7 191.8 581.1 195.9 580.4 197.5C579.7 199.2 578.4 202.5 577.5 205C575 211.6 574.5 213 572 219C570.8 222 569.2 226.4 568.5 228.7C567.7 231.1 566.4 234.5 565.7 236.2C564.9 238 563.2 242.2 562 245.5C557.2 258.2 557.3 258 552.9 258C549.5 258 548.8 257.6 547.9 255.3Z" fill="#000103"/>
<path d="M791 255.8C788 255.3 760.2 255.1 729.2 255.2L673 255.5V249.8V244H677.2C683.6 244 687.7 242.1 689.5 238.4C690.9 235.5 691 227.5 690.8 175.1L690.5 115.2L688.1 112.6C686.7 111.2 684.9 110 683.9 110C682.9 110 679.9 109.5 677.1 108.8L672 107.7V102.6V97.5L731.7 97.7L791.5 97.9L792.1 103.7C792.5 106.9 792.8 115.5 792.9 122.8L793 136.1L787.8 135.8C782.9 135.5 782.5 135.3 781.9 132.4C780.2 124 771.6 112 767.2 112C766.2 112 764.9 111.5 764.2 110.8C762.8 109.4 731.4 109.3 726 110.7L722.5 111.6L722.2 141.4L722 171.3L738.3 170.7C756.4 170.1 760.4 169.1 763.8 164.3C765 162.6 765.8 161.1 765.7 160.9C765.6 160.6 765.9 160.8 766.3 161.1C767.8 162.3 766.1 165.8 763.8 166.4C762.6 166.7 761.9 167.2 762.3 167.6C763.2 168.6 761 171.1 759.8 170.4C759.3 170.1 758.3 170.3 757.6 170.9C755.8 172.4 736.9 174.3 731.2 173.6C728.6 173.3 725.3 173 723.8 173C722.3 173 720.9 172.6 720.6 172.2C720.3 171.7 720 157.9 719.9 141.6C719.8 117.3 720 111.6 721.1 110.4C723.4 108.2 737.4 106.7 750 107.4C762.9 108 767.2 109 772 112.3C776.5 115.3 778.5 118.3 781.9 126.5C784.3 132.5 785.1 133.5 787.3 133.8L790 134.1V124.6C790 119.4 790.5 113.9 791.2 112.5C792.1 110.6 792.1 109.7 791.2 108.8C790.5 108.1 790 105.9 790 103.8V100H731.9H673.9L674.2 103.3C674.4 105.9 675 106.6 677 106.8C685.4 107.6 691 110.7 691 114.5C691 115.7 691.2 116.9 691.5 117.2C691.8 117.5 692 145.1 692.1 178.5V239.4L689.6 241.7C688.2 243 686.4 244 685.5 244C684.7 244 684 244.5 684 245C684 245.6 682.5 246 680.6 246C675.9 246 673.4 247 675.2 248.1C676.2 248.8 676.2 249 675.3 249C673.3 249 673.8 250.8 676 252C678 253.1 786 253.5 793.9 252.4C795.8 252.2 797.8 251.4 798.3 250.7C798.9 249.9 799 250.1 798.6 251.3C798.3 252.3 798 254 798 255.1C798 256.1 797.7 256.9 797.3 256.9C796.8 256.8 794 256.4 791 255.8Z" fill="#000103"/>
<path d="M461 249.8V244H465.6C468.1 244 471 243.5 472.1 243C473.1 242.4 474 242.3 474 242.8C474 244.1 470 245.9 466.5 246.2C463.9 246.5 463.5 246.9 463.5 249.5V252.5L483.5 252.8C494.5 253 505 252.8 506.8 252.5C509.7 252 510.1 251.5 509.8 249.2C509.5 246.8 509 246.5 505.1 246.2C499 245.8 493.3 241.3 492.4 236.2C492 234.2 492.4 221.9 493.3 209C494.2 196.1 495.2 179.2 495.5 171.5C496.2 152.4 497.1 141.9 498 142.5C498.5 142.8 499.1 142.4 499.4 141.8C499.7 141.1 499.8 142.4 499.5 144.8C499 149.1 498.5 159 497.5 185C497 198.9 496.6 203.6 495.5 212.5C495.2 214.7 495 221.7 494.9 228C494.8 239.4 494.8 239.4 497.7 241.7C499.9 243.5 501.8 244 506.3 244H512V249.8V255.6H486.5L461 255.5V249.8Z" fill="#000103"/>
<path d="M621.3 255.3C597.1 255 595 254.8 595 253.2C595 252.3 594.7 249.8 594.4 247.8L593.7 244H599.3C607 244 609.8 242.7 611.7 238.3C613.4 234.2 613.5 235.6 609.5 177.5C607.9 152.4 607 132.5 607.7 136C608 137.4 608.6 138.7 609.1 139C609.5 139.3 610.2 148.3 610.6 159C611.5 184.8 611.6 187.6 612.5 188.9C612.9 189.6 613.1 192.7 612.9 195.8C612.8 198.9 613 202.2 613.4 203.1C613.8 204 614.2 212.3 614.3 221.5C614.5 234.3 614.2 238.4 613.2 238.7C612.6 239 612.3 239.6 612.6 240.1C613.5 241.7 611 244 608.4 244C607.1 244 606 244.5 606 245C606 245.7 604 246 601 245.9C598.3 245.7 595.8 245.9 595.5 246.1C595.3 246.4 595.4 247.9 595.9 249.6L596.6 252.5L626.3 252.7C657.7 252.9 658.5 252.8 657.3 248.2C657 246.7 656 246 654.4 246C653.2 246 651.8 245.5 651.4 244.9C651.1 244.3 650 244 649 244.3C646.6 244.9 642.1 241.1 641.5 238C640.2 231 636.7 180 635 142.5C633.9 119.9 633.9 111 635.1 111C635.4 111 636.7 110 638 108.8C639.7 107.2 641.6 106.6 645.4 106.6L650.5 106.5L650.7 103L650.9 99.5L627.5 99.8L604 100.1L603.4 102.8C603.1 104.3 602.2 107.3 601.3 109.5C600.5 111.6 598.7 116.8 597.3 121C595.9 125.1 594.2 129.2 593.5 130C592.8 130.8 592 133.2 591.6 135.2C591.2 137.2 589.6 142.1 588 146.1C586.3 150 585 153.9 585 154.7C585 155.4 584.3 156.3 583.5 156.6C582.6 157 582.2 158 582.4 158.9C583 160.6 576.8 176.9 575.2 177.9C574.7 178.2 574.2 179.6 574.2 181C574.2 182.4 573.2 185.8 571.9 188.5C570.7 191.3 569.8 193.9 569.9 194.4C570 194.8 569.7 195.7 569.2 196.4C568.6 197 567.9 198.9 567.6 200.5C567.2 202.2 566 204.6 564.9 206L562.9 208.5L563.6 205C563.9 203.1 565.1 199.7 566 197.5C568.5 192.1 573 180.3 573 179.5C573 179.1 573.7 177.4 574.5 175.7C575.3 173.9 577.3 168.5 579.1 163.5C580.8 158.6 582.6 154.1 583.1 153.5C583.6 153 584 151.9 584 151C584 150.1 586 144.3 588.5 138.1C591 131.9 593 126.3 593 125.7C593.1 125 593.9 122.7 595 120.5C596.1 118.3 597 115.8 597 115C597.1 114.2 598.5 110 600.3 105.7L603.5 97.8L628.8 97.7L654 97.5V102C654 104.5 653.6 107 653.2 107.6C652.8 108.2 649.9 108.9 646.7 109.2C642.5 109.5 640.3 110.3 638.4 112.1L635.8 114.5L636.4 127.5C637.3 148.5 639.8 190.5 641 204.5C641.5 211.7 642.2 220.2 642.4 223.5C643.2 234.7 644.2 239.9 645.9 241.5C646.9 242.3 650.4 243.3 653.8 243.6L660 244.3V250.1V256L653.8 255.8C650.3 255.6 635.7 255.4 621.3 255.3Z" fill="#000103"/>
<path d="M816 249.9V244.3L822.2 243.7C827.3 243.2 828.9 242.7 830.7 240.5C832 239.1 833 237 833 235.9C833 234.8 833.5 234.2 834 234.5C836.8 236.3 831.9 244 828 244C826.9 244 826 244.5 826 245C826 245.6 824.2 246 821.9 246C818 246 817.9 246.1 818.2 249.3L818.5 252.5L864 252.4C889 252.4 910.4 252.2 911.5 252.1C912.6 251.9 917.2 252.1 921.7 252.6C928.1 253.1 930.2 253 931.2 251.9C932.9 250.2 934.4 244.7 936.6 232.1C937.9 224.9 938.5 223.1 939.2 224.5C939.8 225.4 940 227.6 939.6 229.4C939.1 232.5 935.4 249.8 934.6 253.5C934.1 255.5 933.3 255.5 875 255.5H816V249.9Z" fill="#000103"/>
<path d="M952.2 250L952.5 244.5L958 243.9C964.1 243.3 968 241.6 968 239.7C968.1 239 968.7 237.2 969.5 235.5L970.8 232.5L970.9 235.4C971 237.6 970 239.3 967 242.2C963.5 245.4 962.3 246 958.5 246C953.5 246 953 246.4 953.7 250.3L954.3 253.2L966.4 252.6C981.4 251.9 980.4 251.9 998.9 252.6C1009.4 253 1014.6 252.8 1015.3 252.1C1017 250.4 1018.2 250.8 1017.8 253C1017.5 255 1016.7 255 984.7 255.3L951.9 255.5L952.2 250Z" fill="#000103"/>
<path d="M1033.4 255.1C1033.2 254.9 1033 252.3 1033 249.3C1033 244.1 1033 244 1036 244C1037.7 244 1039 244.5 1039 245C1039 245.6 1038.2 246 1037.1 246C1034.9 246 1033.5 251 1035.3 252.2C1036 252.6 1046.7 253 1059.3 253H1082V249.5C1082 246.1 1081.9 246 1078.2 246C1076.1 246 1074 245.7 1073.6 245.3C1073.2 244.8 1072.5 244.5 1072.2 244.5C1070.6 244.4 1066.4 241.6 1064.8 239.6C1063.2 237.8 1063 234.8 1063 214.2C1063 201.4 1063.4 191.1 1063.8 191.4C1064.2 191.6 1064.7 201.6 1064.8 213.5C1065 225.4 1065.5 236.2 1066 237.5C1067.4 241.1 1071.5 243.3 1078.3 243.9L1084.5 244.5L1084.8 250L1085.1 255.5H1059.5C1045.4 255.5 1033.6 255.3 1033.4 255.1Z" fill="#000103"/>
<path d="M1364 250.1V244H1367.8C1374.1 244 1379 242 1383.8 237.7C1386.3 235.4 1397.5 221.2 1408.7 206.3L1429.1 179L1427.2 176.3C1424.3 172.1 1415.6 158.1 1412.8 153C1391.9 115.8 1389.3 112.7 1374.8 109L1370 107.7V102.5V97.2L1398.8 97.6C1414.6 97.8 1430.3 98 1433.8 98H1440V103C1440 107.6 1439.8 108 1437.3 108.5C1433.4 109.3 1429.9 111.2 1428.7 113.1C1427.2 115.5 1428.4 118.6 1434.4 128.5C1437.5 133.5 1441.3 140 1443 143C1444.7 146 1447.2 150.4 1448.6 152.8C1451.1 157 1450.2 158.9 1447.7 154.8C1446.9 153.5 1443.3 147.7 1439.6 141.8C1436 135.9 1433 130.8 1433 130.4C1433 130 1431.3 127 1429.2 123.6C1425.9 118.4 1425.5 117 1426.1 114C1426.9 110.4 1429.2 108.2 1434.4 106.4C1436.7 105.6 1437.6 104.6 1437.8 102.7L1438.1 100H1405H1371.9L1372.2 103.3C1372.5 106.1 1372.9 106.6 1376 107C1380.3 107.7 1385.6 110.1 1389.3 113C1392.6 115.6 1403.5 131.7 1404.4 135.4C1404.7 136.8 1405.4 138 1405.9 138C1406.4 138 1409.2 142.2 1412.1 147.3C1414.9 152.3 1419.6 160.1 1422.5 164.5C1425.3 168.9 1428.2 174.2 1428.9 176.2C1430.3 180.5 1430 181.4 1423.1 190.6C1414.3 202.4 1408.5 210.2 1403.7 216.8C1401 220.5 1398.2 223.9 1397.4 224.3C1396.6 224.7 1396 225.6 1396 226.2C1396 226.8 1395.1 228.2 1394 229.4C1392.8 230.6 1389 234.5 1385.6 238.2C1379 245.1 1379.1 245 1368.1 246.2C1364.7 246.6 1364.1 251.8 1367.3 252.5C1370.7 253.2 1416.2 252.4 1418.8 251.5C1420.6 250.9 1421 251.1 1421 252.9C1421 255 1420.8 255 1397.1 255C1384 255 1371.2 255.3 1368.6 255.6L1364 256.3V250.1Z" fill="#000103"/>
<path d="M1450 249.8V244H1453.3C1457.9 243.9 1463.4 240.9 1463.8 238.3C1464.2 235.7 1461.4 230.1 1454.5 219.5C1451.6 215.1 1448.4 209.9 1447.3 208C1446.3 206.1 1443.8 201.9 1441.7 198.7C1437.9 192.8 1436.8 189.7 1439.5 192.4C1442.5 195.3 1452 210.5 1452 212.3C1452 213.2 1452.4 214 1452.9 214C1454.2 214 1464.7 232.1 1465.5 235.6C1466 238.1 1465.6 239.3 1463.7 241.4C1462.4 242.8 1460.3 244 1459.1 244C1458 244 1457 244.4 1457 244.9C1457 245.4 1456 246 1454.8 246.2C1453 246.4 1452.4 247.3 1452.2 249.8L1451.9 253H1460.9C1465.8 253 1470 252.6 1470.2 252.2C1470.4 251.8 1477 251.7 1485 252.1C1515.8 253.7 1521.1 253.1 1519.6 248.4C1518.8 245.7 1515.8 244.1 1511.1 243.8C1508.3 243.7 1505.9 242.7 1503.4 240.7C1500.3 238.1 1489.3 222.8 1484.1 213.8C1483.1 212 1479 205.1 1475 198.5C1471 191.9 1467.7 185.9 1467.7 185.3C1467.7 184.6 1467.4 184 1467 184C1466.1 184 1458 172 1458 170.8C1458 169.3 1460.3 170.4 1461.4 172.5C1462.5 174.5 1470.8 187.7 1476.6 196.7C1478.5 199.6 1480 202.2 1480 202.4C1480 203.4 1496.2 229.3 1499.9 234.3C1504.4 240.2 1508.4 242.5 1516.3 243.5L1521.1 244.1L1520.8 249.8L1520.5 255.4H1485.3L1450 255.5V249.8Z" fill="#000103"/>
<path d="M796.8 245.5C796.6 243.6 796.7 241.9 797.1 241.8C798 241.5 801.6 214.2 800.8 213.5C800.6 213.2 798.9 212.7 797.2 212.4C794.1 211.8 794 211.9 794 214.9C794 216.6 793.6 218 793.1 218C792.6 218 792.5 216.5 792.9 214.8C793.5 211.7 793.8 211.5 798.7 211.2L803.7 210.9L803.4 216.2C803.1 221.1 800.4 241.5 799.4 246.8C798.7 250.1 797.3 249.4 796.8 245.5Z" fill="#000103"/>
<path d="M1016.1 247.8C1016 246.5 1015.1 246 1012.8 246C1011 245.9 1007.5 244.9 1005 243.7C1001.3 241.9 1000.3 240.8 999.6 237.7C999 235.3 999 233.6 999.7 232.9C1000.3 232.3 1000.7 232.3 1000.7 233.2C1000.7 236 1004.2 241.6 1006.7 242.8C1008.2 243.4 1011.3 244 1013.7 244C1018.2 244 1018.4 244.2 1017 247.5C1016.3 249.2 1016.1 249.2 1016.1 247.8Z" fill="#000103"/>
<path d="M741.6 245.1C741.3 244.6 740.1 244.4 739 244.7C736.1 245.5 728.3 243.3 725 240.8C723.4 239.6 721.6 237.3 721 235.7C719.5 231.2 719.7 183.8 721.3 181.8C722.9 179.8 725.8 178.8 726.5 180C726.9 180.6 733.5 181 741.7 181C758.1 181 762.5 182.2 764.4 187.2C765 188.7 765.8 190 766.2 190C766.6 190 767.3 191.8 767.6 194C768 196.7 768.9 198.1 770.2 198.6C772.4 199.3 775.3 197.3 774.3 195.7C774 195.2 773.7 187.4 773.6 178.4C773.5 166.1 773.8 162 774.7 162C775.4 162 775.7 161.4 775.4 160.6C775.1 159.8 774.8 157.6 774.7 155.8C774.5 152.9 774.2 152.5 771.3 152.2C768.6 151.9 768.1 152.2 767.7 154.5C767.3 156.9 767.3 156.9 767.4 154.3C767.5 151.7 767.9 151.5 772.1 151.2L776.6 150.9V176L776.5 201H772.2C769.6 201 767.8 200.5 767.6 199.8C767.4 199.1 766.7 196.5 766 194.1C765.4 191.7 763.6 188.4 762.1 186.9C759 183.8 755 183.2 734.2 182.8L722 182.5V209.1C722 235.4 722 235.7 724.3 237.7C728.7 241.6 739.5 243.9 753.9 244C767.6 244 777.5 241.5 782.8 236.6C785.2 234.5 791 223.2 791 220.8C791 219.9 791.3 219.9 792.2 220.8C793.7 222.3 787.8 233.9 783.1 238.5C779.3 242.3 771.2 245.2 766.8 244.3C765.1 244 764 244.2 764 244.9C764 246.3 742.4 246.5 741.6 245.1Z" fill="#000103"/>
<path d="M879.7 244.9C878.8 244.3 877.1 244.1 876.1 244.5C873.5 245.3 866.4 239.7 864.1 235C862.3 231.2 862.2 228.3 862 177.4C862 140.6 862.2 124 863 124.5C863.7 124.9 864 142 864 176.3C864 231.5 864.2 233.6 869.2 238.9C872.5 242.4 879.8 244 892.4 244C905.8 244 914.7 241 920.7 234.8C924.4 230.8 928.8 221.7 929.7 216.4C930.5 211.6 931.2 211 937.4 211H942.2L941.6 214.3C941.2 216 941 218.7 941 220.3C941.1 224.6 940.2 223.5 939 217.5C938.3 213.9 937.4 212 936.4 212C934.3 212 931 215.7 931 218.1C931 222.1 924.2 234.8 921 236.7C919.3 237.6 918 238.8 918 239.1C918 239.5 917 240.2 915.8 240.6C914.5 240.9 912.7 241.9 911.7 242.8C910.6 243.7 908.5 244.3 906.4 244.2C904.6 244 903 244.4 903 245C903 246.3 882.1 246.3 879.7 244.9Z" fill="#000103"/>
<path d="M1409.4 244.6C1407.7 244 1405.6 242.9 1404.7 242.1C1401.2 239.2 1403.4 231.8 1410.2 223.2C1417.3 214.3 1418.1 213 1417.5 212C1417.2 211.5 1417.6 211 1418.5 211C1419.6 211 1420 210.5 1419.6 209.5C1419.3 208.6 1419.6 208 1420.6 208C1421.6 208 1422 207.4 1421.6 206.5C1421.3 205.6 1421.6 205 1422.5 205C1423.8 205 1427.2 199.9 1426.9 198.4C1426.9 198 1427.5 197.3 1428.4 196.8C1429.3 196.3 1429.8 195.5 1429.5 194.9C1429.1 194.4 1429.3 194 1429.7 194C1430.2 194 1431.8 192.8 1433.3 191.4C1434.9 190 1436.4 189 1436.6 189.3C1437.1 189.8 1434 194.3 1415.5 220C1406.2 232.9 1404.4 236.5 1405.6 239.7C1406.6 242.7 1409.2 243.7 1415.7 243.9C1418 244 1420.2 244.5 1420.5 245C1421.3 246.3 1413.4 246.1 1409.4 244.6Z" fill="#000103"/>
<path d="M1041.5 244C1039.7 243.2 1039.7 243.1 1042 243.1C1045.5 243 1048.5 240.7 1050 236.9C1051.1 234.3 1051.5 234.1 1052.3 235.5C1052.9 236.7 1052.6 237.9 1050.9 239.8C1046.1 245.2 1045.3 245.6 1041.5 244Z" fill="#000103"/>
<path d="M476.3 240.2C477.3 239.1 478.4 236.3 478.7 234.1C479.4 229.3 481 227.5 480.9 231.7C480.8 236.3 478.5 241.5 476.4 241.9C474.6 242.2 474.6 242.2 476.3 240.2Z" fill="#000103"/>
<path d="M1052.5 230.8C1052.2 230.1 1051.9 205.2 1051.8 175.6C1051.6 145.9 1051.6 122.4 1051.8 123.3C1052 124.2 1052.5 125 1053 125C1053.6 125 1054 147.8 1054 178.5C1054 207.9 1053.8 232 1053.5 232C1053.2 232 1052.7 231.4 1052.5 230.8Z" fill="#000103"/>
<path d="M834.7 230.3C833.5 229.2 833.9 123 835 123C835.7 123 836 141.7 836 177C836 206.7 835.9 231 835.7 231C835.5 231 835 230.7 834.7 230.3Z" fill="#000103"/>
<path d="M970.8 228.4C970.3 228 970 222.1 970 215.3C970 205 970.2 203 971.5 203C972.7 203 973 204.3 972.9 209.3C972.7 219.2 971.6 229.3 970.8 228.4Z" fill="#000103"/>
<path d="M480.5 223.8C480.1 222.8 480.1 219.2 480.4 215.8C480.8 212.3 481.3 205 481.5 199.5C481.8 194 482.3 187.3 482.5 184.5C483.7 171.5 484.6 159.9 485.5 145.4C486.1 135.6 487.9 132 488 140.6C488 143.9 487.7 146.9 487.4 147.2C487.1 147.6 486.7 154.2 486.4 162.1C486.2 171.5 485.6 176.6 484.9 177.1C484.1 177.6 483.9 179.7 484.3 183.9C484.7 187.3 484.6 190 484.2 190C483.8 190 483.6 193.3 483.8 197.3C484 202.6 483.8 204.1 483 203C482.3 201.9 482.1 203.7 482.6 209.5C483.2 218 481.9 227 480.5 223.8Z" fill="#000103"/>
<path d="M998.7 221.3C997.7 220.4 997.8 215 998.9 215C999.3 215 999.4 212.9 999 210.3C998 204.4 998.5 119.7 999.4 118.1C999.8 117.5 1000.6 117 1001.2 117C1001.9 117 1002.1 119.7 1001.6 125.8C1001.3 130.6 1001 154.2 1000.9 178.3C1000.9 202.3 1000.5 222 1000.1 222C999.7 222 999 221.7 998.7 221.3Z" fill="#000103"/>
<path d="M556.9 205.5C556.8 205.2 556.7 204.7 556.6 204.3C556.1 202.2 553.5 195 551.5 190.5C550.3 187.8 549.1 185.1 549 184.5C548.9 184 548.1 181.9 547.3 180C546.5 178.1 544.1 172 542 166.5C539.9 161 537.2 154.4 536.1 151.7C535 149.1 534 146.8 534 146.5C533.9 146.3 532.7 143.2 531.4 139.8C530 136.3 527.5 129.7 525.8 125C524.2 120.3 522.5 116.1 522 115.5C521.6 115 521 113.6 520.7 112.5C520.4 111.4 519.7 109 519.2 107.3C517.9 103.2 519.6 102.8 521.1 106.8C521.8 108.3 522.6 110.4 523.1 111.5C523.5 112.6 524.4 115.3 525.1 117.5C525.7 119.7 527.1 123.3 528 125.5C529 127.7 532.6 136.7 536 145.5C539.4 154.3 542.8 162.9 543.6 164.5C544.3 166.2 548.1 175.6 552 185.5C556 195.4 559.4 204.1 559.7 204.8C560 205.4 559.5 206 558.6 206C557.7 206 556.9 205.8 556.9 205.5Z" fill="#000103"/>
<path d="M1155.5 204.3C1154 202.8 1141 186.1 1126 166.5C1123 162.6 1118.6 156.9 1116.3 153.9C1114 150.9 1110.2 146 1107.9 143C1094.5 125.5 1086.8 115.6 1080.9 108.2L1074.3 99.9H1054.4L1034.5 99.8L1034.2 102.7C1033.9 105.7 1035.7 106.9 1042.4 108.5C1046 109.3 1052.1 115.2 1051.1 116.8C1050.6 117.7 1049.9 117.2 1049 115.4C1047.4 112.5 1042.2 110 1037.6 110C1033.2 110 1032 108.4 1032 102.8V98L1038.3 97.9C1043.8 97.9 1066.1 97.9 1073.2 98C1075.3 98 1076.6 99.1 1079 102.5C1080.7 104.9 1083.9 109.1 1086.1 111.7C1088.2 114.4 1090.4 117 1090.8 117.5C1092.3 119.6 1104.8 135.9 1110.5 143.2C1113.8 147.4 1118 152.8 1119.7 155.2C1123.4 160.1 1136.3 176.5 1138.7 179.5C1139.6 180.5 1143.9 186.2 1148.3 192C1152.6 197.8 1157.1 203.3 1158.2 204.3C1159.8 205.6 1159.9 206 1158.7 206C1157.8 206 1156.4 205.3 1155.5 204.3Z" fill="#000103"/>
<path d="M970.4 196.1C971.2 188.7 971.3 128.5 970.5 121C969.6 113.1 968.1 111.4 961.3 110C953 108.4 952.5 108 952.5 102.4V97.6L983 97.8C999.8 97.9 1014.6 98 1015.9 98C1018.2 98 1018.2 98.2 1017.6 102.7C1016.9 108 1016.3 108.6 1010.3 109.5C1007.6 109.9 1005.5 110.9 1004.7 112.1C1003.5 114.1 1001 114.7 1001 113.1C1001 111.4 1007.4 107.2 1010.5 106.8C1013.1 106.5 1013.5 106.1 1013.8 103L1014.1 99.5L984.5 99.8L955 100.1V103C955 105.6 955.5 106 959.3 107C965.6 108.5 968.2 110.2 970.4 114C972.3 117.2 972.5 119.1 972.4 138.5C972.3 152.8 972.6 159.7 973.4 160.2C974 160.7 974.1 161 973.5 161C972.9 161 972.6 168.3 972.8 181.5C973.2 200.4 973 202 971.5 202C970 202 969.8 201.3 970.4 196.1Z" fill="#000103"/>
<path d="M1160.5 200.9C1160.3 200.1 1159.9 183.9 1159.8 164.8C1159.6 136.6 1159.7 130.5 1160.7 132.5C1161.7 134.2 1162 143.7 1162.1 168C1162.2 198.6 1161.9 204.6 1160.5 200.9Z" fill="#000103"/>
<path d="M285.2 193.3C287.3 191.3 289.1 189.8 289.4 190.1C290.3 191 284.9 197 283.2 197C282 197 282.6 195.9 285.2 193.3Z" fill="#000103"/>
<path d="M290 188.5C290 187.5 312.5 165 313.5 165C314 165 313.9 165.4 313.2 165.9C312.4 166.3 311.9 167.1 312.1 167.6C312.2 168.1 311.3 169 310.1 169.6C309 170.2 308.3 171 308.7 171.3C309 171.7 308.7 172 307.8 172C306.2 172 301.7 176.4 302.5 177.2C303.2 177.9 292.3 189 291 189C290.4 189 290 188.8 290 188.5Z" fill="#000103"/>
<path d="M261.5 91V0H291.8H322V61.5V123L292.4 152.3C276.1 168.3 262.5 181.6 262.2 181.8C261.8 181.9 261.5 141.1 261.5 91ZM281 159.4C287.9 152.1 293.8 146.1 294.2 146.1C294.6 146 300.6 140.4 307.5 133.6L320 121.2V61.7V2.2L317.3 1.6C315.9 1.2 314.4 1.3 314.1 1.8C313.8 2.3 302.6 2.8 289 2.9C275.6 3 264.4 3.2 264.3 3.4C264.1 3.6 263.8 156.1 264 174.8C264 176.8 267.2 173.9 281 159.4Z" fill="#000103"/>
<path d="M1457.7 168.4C1456.5 167.2 1456.9 166.3 1461.3 160.8C1468.1 152.4 1473.1 145 1472.5 144.1C1472.2 143.6 1472.6 143 1473.4 142.7C1474.1 142.4 1477.8 137.7 1481.6 132.3C1485.3 126.9 1490.6 120.5 1493.2 118.2C1495.8 115.8 1498 113.2 1498 112.4C1498 111.6 1498.6 111 1499.3 111C1500 111 1502.3 110.1 1504.4 109C1506.5 108 1510.2 106.8 1512.6 106.4C1516.6 105.8 1517 105.5 1517 102.9V100L1492.8 100.2L1468.5 100.5V102.9C1468.5 105.4 1469.9 106.5 1474.2 107.5C1476.8 108 1480.9 112.5 1479.7 113.6C1479.5 113.9 1478 113 1476.5 111.6C1474.9 110.1 1472.4 109 1470.2 108.8L1466.5 108.5L1466.2 102.7L1465.9 96.9L1479.2 97.4C1486.5 97.6 1498.7 97.9 1506.3 97.9L1520.1 98L1519.8 103.3L1519.5 108.5L1513.4 109.1C1501.5 110.2 1493.6 118.4 1468.1 155.7C1460.3 167.2 1458.6 169.2 1457.7 168.4Z" fill="#000103"/>
<path d="M319.7 158.5C321.7 156.5 323.5 155.1 323.7 155.4C324.2 155.8 317.8 162 316.9 162C316.5 162 317.8 160.4 319.7 158.5Z" fill="#000103"/>
<path d="M1062 149.1C1062 142.8 1062.4 137.9 1063 137.5C1063.6 137.1 1064 141 1064 148.4C1064 155.5 1063.6 160 1063 160C1062.4 160 1062 155.7 1062 149.1Z" fill="#000103"/>
<path d="M1453.3 155.7C1453.7 154.8 1455.9 150.9 1458.3 147.2C1465.6 135.9 1468.7 130.8 1473 123.3C1476.9 116.3 1479 114.3 1479 117.5C1479 118.3 1478.3 119 1477.4 119C1476.6 119 1476.1 119.4 1476.4 119.9C1477 120.8 1467.5 137.8 1465.8 139C1464.9 139.7 1460 146.9 1460 147.6C1460 148.2 1455.2 154.8 1453.7 156.5C1453 157.1 1452.9 156.9 1453.3 155.7Z" fill="#000103"/>
<path d="M328.1 149.4C329.4 148 331.3 146.4 332.4 145.8C334.2 144.8 334.2 144.9 332.4 147.2C331.4 148.6 329.5 150.2 328.1 150.8L325.7 152L328.1 149.4Z" fill="#000103"/>
<path d="M603.7 132.6C603 130.7 604.8 129.4 606.1 130.7C606.7 131.3 606.6 132.1 605.7 132.9C604.5 133.8 604.1 133.7 603.7 132.6Z" fill="#000103"/>
<path d="M486 127C486 125.9 486.5 125 487 125C487.6 125 488 125.9 488 127C488 128.1 487.6 129 487 129C486.5 129 486 128.1 486 127Z" fill="#000103"/>
<path d="M486.7 123.3C486.5 122.9 486.3 120.7 486.5 118.5C486.8 112.6 482.9 109.2 475.2 108.8L469.5 108.5V103.1V97.8L483.5 97.9C491.2 97.9 502.3 98 508.1 98C518.7 98 518.8 98 519.2 100.5C519.8 103.3 518.6 103.9 517.2 101.5C516.5 100.2 513.2 100 493.9 100.2L471.5 100.5L471.2 103.8C470.9 106.9 471 107 474.9 107C480.1 107 483.8 108.5 486.5 111.6C488.3 113.7 488.6 115 488.2 118.8C487.7 123.9 487.5 124.6 486.7 123.3Z" fill="#000103"/>
<path d="M863.6 120.3C863.2 119.1 863.2 116.5 863.5 114.6C864.1 111.8 864.9 110.8 867.8 109.5C869.9 108.6 872.3 107.5 873.3 106.9C874.3 106.4 875.5 106.2 875.9 106.5C877.4 107.3 878.9 104.5 878.3 102.2L877.8 100L847.1 100.2L816.5 100.5L816.3 103C816 107.2 816.6 107.8 820.2 107.1C824.2 106.3 829.8 108.7 832.9 112.6C835.1 115.4 835.7 119 834 119C833.5 119 833 118.2 833 117.2C833 114.3 827.9 110.2 823.5 109.5C813.1 107.8 813.9 108.4 814.2 102.7L814.5 97.5H847.2C881.2 97.5 881.3 97.5 880.5 101.6C880.3 102.7 880.1 104.7 880.1 106.2C880 108.6 879.5 108.9 875.1 109.5C869.3 110.3 866.4 112.9 865.2 118.5C864.5 122 864.3 122.2 863.6 120.3Z" fill="#000103"/>
</g>
<defs>
<clipPath id="clip0_1_2">
<rect width="1521" height="439" fill="white"/>
</clipPath>
</defs>
</svg>
